<?xml version="1.0" encoding="utf-8" standalone="no"?>
<!DOCTYPE svg PUBLIC "-//W3C//DTD SVG 1.1//EN"
  "http://www.w3.org/Graphics/SVG/1.1/DTD/svg11.dtd">
<svg xmlns:xlink="http://www.w3.org/1999/xlink" width="660.96pt" height="1125.36pt" viewBox="0 0 660.96 1125.36" xmlns="http://www.w3.org/2000/svg" version="1.1">
 <metadata>
  <rdf:RDF xmlns:dc="http://purl.org/dc/elements/1.1/" xmlns:cc="http://creativecommons.org/ns#" xmlns:rdf="http://www.w3.org/1999/02/22-rdf-syntax-ns#">
   <cc:Work>
    <dc:type rdf:resource="http://purl.org/dc/dcmitype/StillImage"/>
    <dc:date>2026-04-24T23:46:48.244899</dc:date>
    <dc:format>image/svg+xml</dc:format>
    <dc:creator>
     <cc:Agent>
      <dc:title>Matplotlib v3.10.8, https://matplotlib.org/</dc:title>
     </cc:Agent>
    </dc:creator>
   </cc:Work>
  </rdf:RDF>
 </metadata>
 <defs>
  <style type="text/css">*{stroke-linejoin: round; stroke-linecap: butt}</style>
 </defs>
 <rect width="100%" height="100%" fill="white"/>
 <g id="figure_1">
  <g id="patch_1">
   <path d="M 0 1125.36 
L 660.96 1125.36 
L 660.96 0 
L 0 0 
L 0 1125.36 
z
" style="fill: none"/>
  </g>
  <g id="axes_1">
   <g id="patch_2">
    <path d="M 493.2 675 
C 494.345677 675 495.444585 674.544818 496.254701 673.734701 
C 497.064818 672.924585 497.52 671.825677 497.52 670.68 
C 497.52 669.534323 497.064818 668.435415 496.254701 667.625299 
C 495.444585 666.815182 494.345677 666.36 493.2 666.36 
C 492.054323 666.36 490.955415 666.815182 490.145299 667.625299 
C 489.335182 668.435415 488.88 669.534323 488.88 670.68 
C 488.88 671.825677 489.335182 672.924585 490.145299 673.734701 
C 490.955415 674.544818 492.054323 675 493.2 675 
L 493.2 675 
z
" clip-path="url(#pc770874978)" style="fill: none; stroke: #000000; stroke-width: 2; stroke-linejoin: miter"/>
   </g>
   <g id="patch_3">
    <path d="M 520.56 675 
C 521.705677 675 522.804585 674.544818 523.614701 673.734701 
C 524.424818 672.924585 524.88 671.825677 524.88 670.68 
C 524.88 669.534323 524.424818 668.435415 523.614701 667.625299 
C 522.804585 666.815182 521.705677 666.36 520.56 666.36 
C 519.414323 666.36 518.315415 666.815182 517.505299 667.625299 
C 516.695182 668.435415 516.24 669.534323 516.24 670.68 
C 516.24 671.825677 516.695182 672.924585 517.505299 673.734701 
C 518.315415 674.544818 519.414323 675 520.56 675 
L 520.56 675 
z
" clip-path="url(#pc770874978)" style="fill: none; stroke: #000000; stroke-width: 2; stroke-linejoin: miter"/>
   </g>
   <g id="patch_4">
    <path d="M 586.98 589.68 
L 599.58 598.68 
L 586.98 607.68 
L 586.98 589.68 
z
" clip-path="url(#pc770874978)" style="fill: none; stroke: #000000; stroke-width: 2; stroke-linecap: round"/>
   </g>
   <g id="patch_5">
    <path d="M 586.98 517.68 
L 599.58 526.68 
L 586.98 535.68 
L 586.98 517.68 
z
" clip-path="url(#pc770874978)" style="fill: none; stroke: #000000; stroke-width: 2; stroke-linecap: round"/>
   </g>
   <g id="patch_6">
    <path d="M 586.98 445.68 
L 599.58 454.68 
L 586.98 463.68 
L 586.98 445.68 
z
" clip-path="url(#pc770874978)" style="fill: none; stroke: #000000; stroke-width: 2; stroke-linecap: round"/>
   </g>
   <g id="patch_7">
    <path d="M 586.98 373.68 
L 599.58 382.68 
L 586.98 391.68 
L 586.98 373.68 
z
" clip-path="url(#pc770874978)" style="fill: none; stroke: #000000; stroke-width: 2; stroke-linecap: round"/>
   </g>
   <g id="patch_8">
    <path d="M 586.98 301.68 
L 599.58 310.68 
L 586.98 319.68 
L 586.98 301.68 
z
" clip-path="url(#pc770874978)" style="fill: none; stroke: #000000; stroke-width: 2; stroke-linecap: round"/>
   </g>
   <g id="patch_9">
    <path d="M 81.36 819 
C 82.505677 819 83.604585 818.544818 84.414701 817.734701 
C 85.224818 816.924585 85.68 815.825677 85.68 814.68 
C 85.68 813.534323 85.224818 812.435415 84.414701 811.625299 
C 83.604585 810.815182 82.505677 810.36 81.36 810.36 
C 80.214323 810.36 79.115415 810.815182 78.305299 811.625299 
C 77.495182 812.435415 77.04 813.534323 77.04 814.68 
C 77.04 815.825677 77.495182 816.924585 78.305299 817.734701 
C 79.115415 818.544818 80.214323 819 81.36 819 
L 81.36 819 
z
" clip-path="url(#pc770874978)" style="fill: none; stroke: #000000; stroke-width: 2; stroke-linejoin: miter"/>
   </g>
   <g id="patch_10">
    <path d="M 54 819 
C 55.145677 819 56.244585 818.544818 57.054701 817.734701 
C 57.864818 816.924585 58.32 815.825677 58.32 814.68 
C 58.32 813.534323 57.864818 812.435415 57.054701 811.625299 
C 56.244585 810.815182 55.145677 810.36 54 810.36 
C 52.854323 810.36 51.755415 810.815182 50.945299 811.625299 
C 50.135182 812.435415 49.68 813.534323 49.68 814.68 
C 49.68 815.825677 50.135182 816.924585 50.945299 817.734701 
C 51.755415 818.544818 52.854323 819 54 819 
L 54 819 
z
" clip-path="url(#pc770874978)" style="fill: none; stroke: #000000; stroke-width: 2; stroke-linejoin: miter"/>
   </g>
   <g id="patch_11">
    <path d="M 81.36 747 
C 82.505677 747 83.604585 746.544818 84.414701 745.734701 
C 85.224818 744.924585 85.68 743.825677 85.68 742.68 
C 85.68 741.534323 85.224818 740.435415 84.414701 739.625299 
C 83.604585 738.815182 82.505677 738.36 81.36 738.36 
C 80.214323 738.36 79.115415 738.815182 78.305299 739.625299 
C 77.495182 740.435415 77.04 741.534323 77.04 742.68 
C 77.04 743.825677 77.495182 744.924585 78.305299 745.734701 
C 79.115415 746.544818 80.214323 747 81.36 747 
L 81.36 747 
z
" clip-path="url(#pc770874978)" style="fill: none; stroke: #000000; stroke-width: 2; stroke-linejoin: miter"/>
   </g>
   <g id="patch_12">
    <path d="M 54 747 
C 55.145677 747 56.244585 746.544818 57.054701 745.734701 
C 57.864818 744.924585 58.32 743.825677 58.32 742.68 
C 58.32 741.534323 57.864818 740.435415 57.054701 739.625299 
C 56.244585 738.815182 55.145677 738.36 54 738.36 
C 52.854323 738.36 51.755415 738.815182 50.945299 739.625299 
C 50.135182 740.435415 49.68 741.534323 49.68 742.68 
C 49.68 743.825677 50.135182 744.924585 50.945299 745.734701 
C 51.755415 746.544818 52.854323 747 54 747 
L 54 747 
z
" clip-path="url(#pc770874978)" style="fill: none; stroke: #000000; stroke-width: 2; stroke-linejoin: miter"/>
   </g>
   <g id="patch_13">
    <path d="M 81.36 675 
C 82.505677 675 83.604585 674.544818 84.414701 673.734701 
C 85.224818 672.924585 85.68 671.825677 85.68 670.68 
C 85.68 669.534323 85.224818 668.435415 84.414701 667.625299 
C 83.604585 666.815182 82.505677 666.36 81.36 666.36 
C 80.214323 666.36 79.115415 666.815182 78.305299 667.625299 
C 77.495182 668.435415 77.04 669.534323 77.04 670.68 
C 77.04 671.825677 77.495182 672.924585 78.305299 673.734701 
C 79.115415 674.544818 80.214323 675 81.36 675 
L 81.36 675 
z
" clip-path="url(#pc770874978)" style="fill: none; stroke: #000000; stroke-width: 2; stroke-linejoin: miter"/>
   </g>
   <g id="patch_14">
    <path d="M 54 675 
C 55.145677 675 56.244585 674.544818 57.054701 673.734701 
C 57.864818 672.924585 58.32 671.825677 58.32 670.68 
C 58.32 669.534323 57.864818 668.435415 57.054701 667.625299 
C 56.244585 666.815182 55.145677 666.36 54 666.36 
C 52.854323 666.36 51.755415 666.815182 50.945299 667.625299 
C 50.135182 668.435415 49.68 669.534323 49.68 670.68 
C 49.68 671.825677 50.135182 672.924585 50.945299 673.734701 
C 51.755415 674.544818 52.854323 675 54 675 
L 54 675 
z
" clip-path="url(#pc770874978)" style="fill: none; stroke: #000000; stroke-width: 2; stroke-linejoin: miter"/>
   </g>
   <g id="patch_15">
    <path d="M 81.36 603 
C 82.505677 603 83.604585 602.544818 84.414701 601.734701 
C 85.224818 600.924585 85.68 599.825677 85.68 598.68 
C 85.68 597.534323 85.224818 596.435415 84.414701 595.625299 
C 83.604585 594.815182 82.505677 594.36 81.36 594.36 
C 80.214323 594.36 79.115415 594.815182 78.305299 595.625299 
C 77.495182 596.435415 77.04 597.534323 77.04 598.68 
C 77.04 599.825677 77.495182 600.924585 78.305299 601.734701 
C 79.115415 602.544818 80.214323 603 81.36 603 
L 81.36 603 
z
" clip-path="url(#pc770874978)" style="fill: none; stroke: #000000; stroke-width: 2; stroke-linejoin: miter"/>
   </g>
   <g id="patch_16">
    <path d="M 54 603 
C 55.145677 603 56.244585 602.544818 57.054701 601.734701 
C 57.864818 600.924585 58.32 599.825677 58.32 598.68 
C 58.32 597.534323 57.864818 596.435415 57.054701 595.625299 
C 56.244585 594.815182 55.145677 594.36 54 594.36 
C 52.854323 594.36 51.755415 594.815182 50.945299 595.625299 
C 50.135182 596.435415 49.68 597.534323 49.68 598.68 
C 49.68 599.825677 50.135182 600.924585 50.945299 601.734701 
C 51.755415 602.544818 52.854323 603 54 603 
L 54 603 
z
" clip-path="url(#pc770874978)" style="fill: none; stroke: #000000; stroke-width: 2; stroke-linejoin: miter"/>
   </g>
   <g id="line2d_1">
    <path d="M 197.28 1120.68 
L 377.28 1120.68 
L 377.28 4.68 
L 197.28 4.68 
L 197.28 1120.68 
" clip-path="url(#pc770874978)" style="fill: none; stroke: #000000; stroke-width: 2; stroke-linecap: round"/>
   </g>
   <g id="line2d_2">
    <path d="M 197.28 1102.68 
L 143.28 1102.68 
" clip-path="url(#pc770874978)" style="fill: none; stroke: #000000; stroke-width: 2; stroke-linecap: round"/>
   </g>
   <g id="line2d_3">
    <path d="M 197.28 1030.68 
L 143.28 1030.68 
" clip-path="url(#pc770874978)" style="fill: none; stroke: #000000; stroke-width: 2; stroke-linecap: round"/>
   </g>
   <g id="line2d_4">
    <path d="M 197.28 958.68 
L 143.28 958.68 
" clip-path="url(#pc770874978)" style="fill: none; stroke: #000000; stroke-width: 2; stroke-linecap: round"/>
   </g>
   <g id="line2d_5">
    <path d="M 197.28 886.68 
L 143.28 886.68 
" clip-path="url(#pc770874978)" style="fill: none; stroke: #000000; stroke-width: 2; stroke-linecap: round"/>
   </g>
   <g id="line2d_6">
    <path d="M 197.28 814.68 
L 143.28 814.68 
" clip-path="url(#pc770874978)" style="fill: none; stroke: #000000; stroke-width: 2; stroke-linecap: round"/>
   </g>
   <g id="line2d_7">
    <path d="M 197.28 742.68 
L 143.28 742.68 
" clip-path="url(#pc770874978)" style="fill: none; stroke: #000000; stroke-width: 2; stroke-linecap: round"/>
   </g>
   <g id="line2d_8">
    <path d="M 197.28 670.68 
L 143.28 670.68 
" clip-path="url(#pc770874978)" style="fill: none; stroke: #000000; stroke-width: 2; stroke-linecap: round"/>
   </g>
   <g id="line2d_9">
    <path d="M 197.28 598.68 
L 143.28 598.68 
" clip-path="url(#pc770874978)" style="fill: none; stroke: #000000; stroke-width: 2; stroke-linecap: round"/>
   </g>
   <g id="line2d_10">
    <path d="M 197.28 526.68 
L 143.28 526.68 
" clip-path="url(#pc770874978)" style="fill: none; stroke: #000000; stroke-width: 2; stroke-linecap: round"/>
   </g>
   <g id="line2d_11">
    <path d="M 197.28 454.68 
L 143.28 454.68 
" clip-path="url(#pc770874978)" style="fill: none; stroke: #000000; stroke-width: 2; stroke-linecap: round"/>
   </g>
   <g id="line2d_12">
    <path d="M 197.28 382.68 
L 143.28 382.68 
" clip-path="url(#pc770874978)" style="fill: none; stroke: #000000; stroke-width: 2; stroke-linecap: round"/>
   </g>
   <g id="line2d_13">
    <path d="M 197.28 310.68 
L 143.28 310.68 
" clip-path="url(#pc770874978)" style="fill: none; stroke: #000000; stroke-width: 2; stroke-linecap: round"/>
   </g>
   <g id="line2d_14">
    <path d="M 197.28 238.68 
L 143.28 238.68 
" clip-path="url(#pc770874978)" style="fill: none; stroke: #000000; stroke-width: 2; stroke-linecap: round"/>
   </g>
   <g id="line2d_15">
    <path d="M 197.28 166.68 
L 143.28 166.68 
" clip-path="url(#pc770874978)" style="fill: none; stroke: #000000; stroke-width: 2; stroke-linecap: round"/>
   </g>
   <g id="line2d_16">
    <path d="M 197.28 94.68 
L 143.28 94.68 
" clip-path="url(#pc770874978)" style="fill: none; stroke: #000000; stroke-width: 2; stroke-linecap: round"/>
   </g>
   <g id="line2d_17">
    <path d="M 197.28 22.68 
L 143.28 22.68 
" clip-path="url(#pc770874978)" style="fill: none; stroke: #000000; stroke-width: 2; stroke-linecap: round"/>
   </g>
   <g id="line2d_18">
    <path d="M 377.28 958.68 
L 431.28 958.68 
" clip-path="url(#pc770874978)" style="fill: none; stroke: #000000; stroke-width: 2; stroke-linecap: round"/>
   </g>
   <g id="line2d_19">
    <path d="M 377.28 886.68 
L 431.28 886.68 
" clip-path="url(#pc770874978)" style="fill: none; stroke: #000000; stroke-width: 2; stroke-linecap: round"/>
   </g>
   <g id="line2d_20">
    <path d="M 377.28 814.68 
L 431.28 814.68 
" clip-path="url(#pc770874978)" style="fill: none; stroke: #000000; stroke-width: 2; stroke-linecap: round"/>
   </g>
   <g id="line2d_21">
    <path d="M 377.28 742.68 
L 431.28 742.68 
" clip-path="url(#pc770874978)" style="fill: none; stroke: #000000; stroke-width: 2; stroke-linecap: round"/>
   </g>
   <g id="line2d_22">
    <path d="M 377.28 670.68 
L 431.28 670.68 
" clip-path="url(#pc770874978)" style="fill: none; stroke: #000000; stroke-width: 2; stroke-linecap: round"/>
   </g>
   <g id="line2d_23">
    <path d="M 377.28 598.68 
L 431.28 598.68 
" clip-path="url(#pc770874978)" style="fill: none; stroke: #000000; stroke-width: 2; stroke-linecap: round"/>
   </g>
   <g id="line2d_24">
    <path d="M 377.28 526.68 
L 431.28 526.68 
" clip-path="url(#pc770874978)" style="fill: none; stroke: #000000; stroke-width: 2; stroke-linecap: round"/>
   </g>
   <g id="line2d_25">
    <path d="M 377.28 454.68 
L 431.28 454.68 
" clip-path="url(#pc770874978)" style="fill: none; stroke: #000000; stroke-width: 2; stroke-linecap: round"/>
   </g>
   <g id="line2d_26">
    <path d="M 377.28 382.68 
L 431.28 382.68 
" clip-path="url(#pc770874978)" style="fill: none; stroke: #000000; stroke-width: 2; stroke-linecap: round"/>
   </g>
   <g id="line2d_27">
    <path d="M 377.28 310.68 
L 431.28 310.68 
" clip-path="url(#pc770874978)" style="fill: none; stroke: #000000; stroke-width: 2; stroke-linecap: round"/>
   </g>
   <g id="line2d_28">
    <path d="M 377.28 238.68 
L 431.28 238.68 
" clip-path="url(#pc770874978)" style="fill: none; stroke: #000000; stroke-width: 2; stroke-linecap: round"/>
   </g>
   <g id="line2d_29">
    <path d="M 377.28 166.68 
L 431.28 166.68 
" clip-path="url(#pc770874978)" style="fill: none; stroke: #000000; stroke-width: 2; stroke-linecap: round"/>
   </g>
   <g id="line2d_30">
    <path d="M 424.53 893.43 
L 438.03 879.93 
" clip-path="url(#pc770874978)" style="fill: none; stroke: #000000; stroke-width: 2; stroke-linecap: round"/>
   </g>
   <g id="line2d_31">
    <path d="M 424.53 879.93 
L 438.03 893.43 
" clip-path="url(#pc770874978)" style="fill: none; stroke: #000000; stroke-width: 2; stroke-linecap: round"/>
   </g>
   <g id="line2d_32">
    <path d="M 424.53 749.43 
L 438.03 735.93 
" clip-path="url(#pc770874978)" style="fill: none; stroke: #000000; stroke-width: 2; stroke-linecap: round"/>
   </g>
   <g id="line2d_33">
    <path d="M 424.53 735.93 
L 438.03 749.43 
" clip-path="url(#pc770874978)" style="fill: none; stroke: #000000; stroke-width: 2; stroke-linecap: round"/>
   </g>
   <g id="line2d_34">
    <path d="M 431.28 670.68 
L 442.08 670.68 
L 452.88 670.68 
" clip-path="url(#pc770874978)" style="fill: none; stroke: #000000; stroke-width: 2; stroke-linecap: round"/>
   </g>
   <g id="line2d_35">
    <path d="M 452.88 670.68 
L 443.88 667.68 
L 461.88 661.68 
L 443.88 655.68 
L 461.88 649.68 
L 443.88 643.68 
L 461.88 637.68 
L 452.88 634.68 
" clip-path="url(#pc770874978)" style="fill: none; stroke: #000000; stroke-width: 2; stroke-linecap: round"/>
   </g>
   <g id="line2d_36">
    <path d="M 452.88 670.68 
L 488.88 670.68 
M 493.2 659.88 
L 520.56 659.88 
M 506.88 659.88 
L 506.88 652.68 
M 524.88 670.68 
L 560.88 670.68 
" clip-path="url(#pc770874978)" style="fill: none; stroke: #000000; stroke-width: 2; stroke-linecap: round"/>
   </g>
   <g id="line2d_37">
    <path d="M 560.88 670.68 
L 560.88 685.08 
L 551.88 685.08 
L 569.88 685.08 
M 554.58 689.4 
L 567.18 689.4 
M 559.08 693.72 
L 562.68 693.72 
" clip-path="url(#pc770874978)" style="fill: none; stroke: #000000; stroke-width: 2; stroke-linecap: round"/>
   </g>
   <g id="line2d_38">
    <path d="M 431.28 598.68 
L 467.28 598.68 
L 470.28 589.68 
L 476.28 607.68 
L 482.28 589.68 
L 488.28 607.68 
L 494.28 589.68 
L 500.28 607.68 
L 503.28 598.68 
L 539.28 598.68 
" clip-path="url(#pc770874978)" style="fill: none; stroke: #000000; stroke-width: 2; stroke-linecap: round"/>
   </g>
   <g id="line2d_39">
    <path d="M 539.28 598.68 
L 586.98 598.68 
M 599.58 589.68 
L 599.58 607.68 
M 599.58 598.68 
L 647.28 598.68 
" clip-path="url(#pc770874978)" style="fill: none; stroke: #000000; stroke-width: 2; stroke-linecap: round"/>
   </g>
   <g id="line2d_40">
    <path d="M 595.98 585.18 
L 601.4078 575.681351 
" clip-path="url(#pc770874978)" style="fill: none; stroke: #000000; stroke-width: 2; stroke-linecap: round"/>
   </g>
   <g id="patch_17">
    <path d="M 598.907259 574.25247 
L 604.98 569.43 
L 603.90834 577.110231 
z
" clip-path="url(#pc770874978)"/>
   </g>
   <g id="line2d_41">
    <path d="M 587.88 585.18 
L 593.3078 575.681351 
" clip-path="url(#pc770874978)" style="fill: none; stroke: #000000; stroke-width: 2; stroke-linecap: round"/>
   </g>
   <g id="patch_18">
    <path d="M 590.807259 574.25247 
L 596.88 569.43 
L 595.80834 577.110231 
z
" clip-path="url(#pc770874978)"/>
   </g>
   <g id="line2d_42">
    <path d="M 647.28 598.68 
L 647.28 613.08 
L 638.28 613.08 
L 656.28 613.08 
M 640.98 617.4 
L 653.58 617.4 
M 645.48 621.72 
L 649.08 621.72 
" clip-path="url(#pc770874978)" style="fill: none; stroke: #000000; stroke-width: 2; stroke-linecap: round"/>
   </g>
   <g id="line2d_43">
    <path d="M 431.28 526.68 
L 467.28 526.68 
L 470.28 517.68 
L 476.28 535.68 
L 482.28 517.68 
L 488.28 535.68 
L 494.28 517.68 
L 500.28 535.68 
L 503.28 526.68 
L 539.28 526.68 
" clip-path="url(#pc770874978)" style="fill: none; stroke: #000000; stroke-width: 2; stroke-linecap: round"/>
   </g>
   <g id="line2d_44">
    <path d="M 539.28 526.68 
L 586.98 526.68 
M 599.58 517.68 
L 599.58 535.68 
M 599.58 526.68 
L 647.28 526.68 
" clip-path="url(#pc770874978)" style="fill: none; stroke: #000000; stroke-width: 2; stroke-linecap: round"/>
   </g>
   <g id="line2d_45">
    <path d="M 595.98 513.18 
L 601.4078 503.681351 
" clip-path="url(#pc770874978)" style="fill: none; stroke: #000000; stroke-width: 2; stroke-linecap: round"/>
   </g>
   <g id="patch_19">
    <path d="M 598.907259 502.25247 
L 604.98 497.43 
L 603.90834 505.110231 
z
" clip-path="url(#pc770874978)"/>
   </g>
   <g id="line2d_46">
    <path d="M 587.88 513.18 
L 593.3078 503.681351 
" clip-path="url(#pc770874978)" style="fill: none; stroke: #000000; stroke-width: 2; stroke-linecap: round"/>
   </g>
   <g id="patch_20">
    <path d="M 590.807259 502.25247 
L 596.88 497.43 
L 595.80834 505.110231 
z
" clip-path="url(#pc770874978)"/>
   </g>
   <g id="line2d_47">
    <path d="M 647.28 526.68 
L 647.28 541.08 
L 638.28 541.08 
L 656.28 541.08 
M 640.98 545.4 
L 653.58 545.4 
M 645.48 549.72 
L 649.08 549.72 
" clip-path="url(#pc770874978)" style="fill: none; stroke: #000000; stroke-width: 2; stroke-linecap: round"/>
   </g>
   <g id="line2d_48">
    <path d="M 431.28 454.68 
L 467.28 454.68 
L 470.28 445.68 
L 476.28 463.68 
L 482.28 445.68 
L 488.28 463.68 
L 494.28 445.68 
L 500.28 463.68 
L 503.28 454.68 
L 539.28 454.68 
" clip-path="url(#pc770874978)" style="fill: none; stroke: #000000; stroke-width: 2; stroke-linecap: round"/>
   </g>
   <g id="line2d_49">
    <path d="M 539.28 454.68 
L 586.98 454.68 
M 599.58 445.68 
L 599.58 463.68 
M 599.58 454.68 
L 647.28 454.68 
" clip-path="url(#pc770874978)" style="fill: none; stroke: #000000; stroke-width: 2; stroke-linecap: round"/>
   </g>
   <g id="line2d_50">
    <path d="M 595.98 441.18 
L 601.4078 431.681351 
" clip-path="url(#pc770874978)" style="fill: none; stroke: #000000; stroke-width: 2; stroke-linecap: round"/>
   </g>
   <g id="patch_21">
    <path d="M 598.907259 430.25247 
L 604.98 425.43 
L 603.90834 433.110231 
z
" clip-path="url(#pc770874978)"/>
   </g>
   <g id="line2d_51">
    <path d="M 587.88 441.18 
L 593.3078 431.681351 
" clip-path="url(#pc770874978)" style="fill: none; stroke: #000000; stroke-width: 2; stroke-linecap: round"/>
   </g>
   <g id="patch_22">
    <path d="M 590.807259 430.25247 
L 596.88 425.43 
L 595.80834 433.110231 
z
" clip-path="url(#pc770874978)"/>
   </g>
   <g id="line2d_52">
    <path d="M 647.28 454.68 
L 647.28 469.08 
L 638.28 469.08 
L 656.28 469.08 
M 640.98 473.4 
L 653.58 473.4 
M 645.48 477.72 
L 649.08 477.72 
" clip-path="url(#pc770874978)" style="fill: none; stroke: #000000; stroke-width: 2; stroke-linecap: round"/>
   </g>
   <g id="line2d_53">
    <path d="M 431.28 382.68 
L 467.28 382.68 
L 470.28 373.68 
L 476.28 391.68 
L 482.28 373.68 
L 488.28 391.68 
L 494.28 373.68 
L 500.28 391.68 
L 503.28 382.68 
L 539.28 382.68 
" clip-path="url(#pc770874978)" style="fill: none; stroke: #000000; stroke-width: 2; stroke-linecap: round"/>
   </g>
   <g id="line2d_54">
    <path d="M 539.28 382.68 
L 586.98 382.68 
M 599.58 373.68 
L 599.58 391.68 
M 599.58 382.68 
L 647.28 382.68 
" clip-path="url(#pc770874978)" style="fill: none; stroke: #000000; stroke-width: 2; stroke-linecap: round"/>
   </g>
   <g id="line2d_55">
    <path d="M 595.98 369.18 
L 601.4078 359.681351 
" clip-path="url(#pc770874978)" style="fill: none; stroke: #000000; stroke-width: 2; stroke-linecap: round"/>
   </g>
   <g id="patch_23">
    <path d="M 598.907259 358.25247 
L 604.98 353.43 
L 603.90834 361.110231 
z
" clip-path="url(#pc770874978)"/>
   </g>
   <g id="line2d_56">
    <path d="M 587.88 369.18 
L 593.3078 359.681351 
" clip-path="url(#pc770874978)" style="fill: none; stroke: #000000; stroke-width: 2; stroke-linecap: round"/>
   </g>
   <g id="patch_24">
    <path d="M 590.807259 358.25247 
L 596.88 353.43 
L 595.80834 361.110231 
z
" clip-path="url(#pc770874978)"/>
   </g>
   <g id="line2d_57">
    <path d="M 647.28 382.68 
L 647.28 397.08 
L 638.28 397.08 
L 656.28 397.08 
M 640.98 401.4 
L 653.58 401.4 
M 645.48 405.72 
L 649.08 405.72 
" clip-path="url(#pc770874978)" style="fill: none; stroke: #000000; stroke-width: 2; stroke-linecap: round"/>
   </g>
   <g id="line2d_58">
    <path d="M 431.28 310.68 
L 467.28 310.68 
L 470.28 301.68 
L 476.28 319.68 
L 482.28 301.68 
L 488.28 319.68 
L 494.28 301.68 
L 500.28 319.68 
L 503.28 310.68 
L 539.28 310.68 
" clip-path="url(#pc770874978)" style="fill: none; stroke: #000000; stroke-width: 2; stroke-linecap: round"/>
   </g>
   <g id="line2d_59">
    <path d="M 539.28 310.68 
L 586.98 310.68 
M 599.58 301.68 
L 599.58 319.68 
M 599.58 310.68 
L 647.28 310.68 
" clip-path="url(#pc770874978)" style="fill: none; stroke: #000000; stroke-width: 2; stroke-linecap: round"/>
   </g>
   <g id="line2d_60">
    <path d="M 595.98 297.18 
L 601.4078 287.681351 
" clip-path="url(#pc770874978)" style="fill: none; stroke: #000000; stroke-width: 2; stroke-linecap: round"/>
   </g>
   <g id="patch_25">
    <path d="M 598.907259 286.25247 
L 604.98 281.43 
L 603.90834 289.110231 
z
" clip-path="url(#pc770874978)"/>
   </g>
   <g id="line2d_61">
    <path d="M 587.88 297.18 
L 593.3078 287.681351 
" clip-path="url(#pc770874978)" style="fill: none; stroke: #000000; stroke-width: 2; stroke-linecap: round"/>
   </g>
   <g id="patch_26">
    <path d="M 590.807259 286.25247 
L 596.88 281.43 
L 595.80834 289.110231 
z
" clip-path="url(#pc770874978)"/>
   </g>
   <g id="line2d_62">
    <path d="M 647.28 310.68 
L 647.28 325.08 
L 638.28 325.08 
L 656.28 325.08 
M 640.98 329.4 
L 653.58 329.4 
M 645.48 333.72 
L 649.08 333.72 
" clip-path="url(#pc770874978)" style="fill: none; stroke: #000000; stroke-width: 2; stroke-linecap: round"/>
   </g>
   <g id="line2d_63">
    <path d="M 424.53 245.43 
L 438.03 231.93 
" clip-path="url(#pc770874978)" style="fill: none; stroke: #000000; stroke-width: 2; stroke-linecap: round"/>
   </g>
   <g id="line2d_64">
    <path d="M 424.53 231.93 
L 438.03 245.43 
" clip-path="url(#pc770874978)" style="fill: none; stroke: #000000; stroke-width: 2; stroke-linecap: round"/>
   </g>
   <g id="line2d_65">
    <path d="M 424.53 173.43 
L 438.03 159.93 
" clip-path="url(#pc770874978)" style="fill: none; stroke: #000000; stroke-width: 2; stroke-linecap: round"/>
   </g>
   <g id="line2d_66">
    <path d="M 424.53 159.93 
L 438.03 173.43 
" clip-path="url(#pc770874978)" style="fill: none; stroke: #000000; stroke-width: 2; stroke-linecap: round"/>
   </g>
   <g id="line2d_67">
    <path d="M 136.53 1109.43 
L 150.03 1095.93 
" clip-path="url(#pc770874978)" style="fill: none; stroke: #000000; stroke-width: 2; stroke-linecap: round"/>
   </g>
   <g id="line2d_68">
    <path d="M 136.53 1095.93 
L 150.03 1109.43 
" clip-path="url(#pc770874978)" style="fill: none; stroke: #000000; stroke-width: 2; stroke-linecap: round"/>
   </g>
   <g id="line2d_69">
    <path d="M 136.53 965.43 
L 150.03 951.93 
" clip-path="url(#pc770874978)" style="fill: none; stroke: #000000; stroke-width: 2; stroke-linecap: round"/>
   </g>
   <g id="line2d_70">
    <path d="M 136.53 951.93 
L 150.03 965.43 
" clip-path="url(#pc770874978)" style="fill: none; stroke: #000000; stroke-width: 2; stroke-linecap: round"/>
   </g>
   <g id="line2d_71">
    <path d="M 143.28 886.68 
L 143.28 901.08 
L 134.28 901.08 
L 152.28 901.08 
M 136.98 905.4 
L 149.58 905.4 
M 141.48 909.72 
L 145.08 909.72 
" clip-path="url(#pc770874978)" style="fill: none; stroke: #000000; stroke-width: 2; stroke-linecap: round"/>
   </g>
   <g id="line2d_72">
    <path d="M 143.28 814.68 
L 132.48 814.68 
L 121.68 814.68 
" clip-path="url(#pc770874978)" style="fill: none; stroke: #000000; stroke-width: 2; stroke-linecap: round"/>
   </g>
   <g id="line2d_73">
    <path d="M 121.68 814.68 
L 112.68 811.68 
L 130.68 805.68 
L 112.68 799.68 
L 130.68 793.68 
L 112.68 787.68 
L 130.68 781.68 
L 121.68 778.68 
" clip-path="url(#pc770874978)" style="fill: none; stroke: #000000; stroke-width: 2; stroke-linecap: round"/>
   </g>
   <g id="line2d_74">
    <path d="M 121.68 814.68 
L 85.68 814.68 
M 81.36 825.48 
L 54 825.48 
M 67.68 825.48 
L 67.68 832.68 
M 49.68 814.68 
L 13.68 814.68 
" clip-path="url(#pc770874978)" style="fill: none; stroke: #000000; stroke-width: 2; stroke-linecap: round"/>
   </g>
   <g id="line2d_75">
    <path d="M 13.68 814.68 
L 13.68 829.08 
L 4.68 829.08 
L 22.68 829.08 
M 7.38 833.4 
L 19.98 833.4 
M 11.88 837.72 
L 15.48 837.72 
" clip-path="url(#pc770874978)" style="fill: none; stroke: #000000; stroke-width: 2; stroke-linecap: round"/>
   </g>
   <g id="line2d_76">
    <path d="M 143.28 742.68 
L 132.48 742.68 
L 121.68 742.68 
" clip-path="url(#pc770874978)" style="fill: none; stroke: #000000; stroke-width: 2; stroke-linecap: round"/>
   </g>
   <g id="line2d_77">
    <path d="M 121.68 742.68 
L 112.68 739.68 
L 130.68 733.68 
L 112.68 727.68 
L 130.68 721.68 
L 112.68 715.68 
L 130.68 709.68 
L 121.68 706.68 
" clip-path="url(#pc770874978)" style="fill: none; stroke: #000000; stroke-width: 2; stroke-linecap: round"/>
   </g>
   <g id="line2d_78">
    <path d="M 121.68 742.68 
L 85.68 742.68 
M 81.36 753.48 
L 54 753.48 
M 67.68 753.48 
L 67.68 760.68 
M 49.68 742.68 
L 13.68 742.68 
" clip-path="url(#pc770874978)" style="fill: none; stroke: #000000; stroke-width: 2; stroke-linecap: round"/>
   </g>
   <g id="line2d_79">
    <path d="M 13.68 742.68 
L 13.68 757.08 
L 4.68 757.08 
L 22.68 757.08 
M 7.38 761.4 
L 19.98 761.4 
M 11.88 765.72 
L 15.48 765.72 
" clip-path="url(#pc770874978)" style="fill: none; stroke: #000000; stroke-width: 2; stroke-linecap: round"/>
   </g>
   <g id="line2d_80">
    <path d="M 143.28 670.68 
L 132.48 670.68 
L 121.68 670.68 
" clip-path="url(#pc770874978)" style="fill: none; stroke: #000000; stroke-width: 2; stroke-linecap: round"/>
   </g>
   <g id="line2d_81">
    <path d="M 121.68 670.68 
L 112.68 667.68 
L 130.68 661.68 
L 112.68 655.68 
L 130.68 649.68 
L 112.68 643.68 
L 130.68 637.68 
L 121.68 634.68 
" clip-path="url(#pc770874978)" style="fill: none; stroke: #000000; stroke-width: 2; stroke-linecap: round"/>
   </g>
   <g id="line2d_82">
    <path d="M 121.68 670.68 
L 85.68 670.68 
M 81.36 681.48 
L 54 681.48 
M 67.68 681.48 
L 67.68 688.68 
M 49.68 670.68 
L 13.68 670.68 
" clip-path="url(#pc770874978)" style="fill: none; stroke: #000000; stroke-width: 2; stroke-linecap: round"/>
   </g>
   <g id="line2d_83">
    <path d="M 13.68 670.68 
L 13.68 685.08 
L 4.68 685.08 
L 22.68 685.08 
M 7.38 689.4 
L 19.98 689.4 
M 11.88 693.72 
L 15.48 693.72 
" clip-path="url(#pc770874978)" style="fill: none; stroke: #000000; stroke-width: 2; stroke-linecap: round"/>
   </g>
   <g id="line2d_84">
    <path d="M 143.28 598.68 
L 132.48 598.68 
L 121.68 598.68 
" clip-path="url(#pc770874978)" style="fill: none; stroke: #000000; stroke-width: 2; stroke-linecap: round"/>
   </g>
   <g id="line2d_85">
    <path d="M 121.68 598.68 
L 112.68 595.68 
L 130.68 589.68 
L 112.68 583.68 
L 130.68 577.68 
L 112.68 571.68 
L 130.68 565.68 
L 121.68 562.68 
" clip-path="url(#pc770874978)" style="fill: none; stroke: #000000; stroke-width: 2; stroke-linecap: round"/>
   </g>
   <g id="line2d_86">
    <path d="M 121.68 598.68 
L 85.68 598.68 
M 81.36 609.48 
L 54 609.48 
M 67.68 609.48 
L 67.68 616.68 
M 49.68 598.68 
L 13.68 598.68 
" clip-path="url(#pc770874978)" style="fill: none; stroke: #000000; stroke-width: 2; stroke-linecap: round"/>
   </g>
   <g id="line2d_87">
    <path d="M 13.68 598.68 
L 13.68 613.08 
L 4.68 613.08 
L 22.68 613.08 
M 7.38 617.4 
L 19.98 617.4 
M 11.88 621.72 
L 15.48 621.72 
" clip-path="url(#pc770874978)" style="fill: none; stroke: #000000; stroke-width: 2; stroke-linecap: round"/>
   </g>
   <g id="line2d_88">
    <path d="M 136.53 533.43 
L 150.03 519.93 
" clip-path="url(#pc770874978)" style="fill: none; stroke: #000000; stroke-width: 2; stroke-linecap: round"/>
   </g>
   <g id="line2d_89">
    <path d="M 136.53 519.93 
L 150.03 533.43 
" clip-path="url(#pc770874978)" style="fill: none; stroke: #000000; stroke-width: 2; stroke-linecap: round"/>
   </g>
   <g id="line2d_90">
    <path d="M 136.53 461.43 
L 150.03 447.93 
" clip-path="url(#pc770874978)" style="fill: none; stroke: #000000; stroke-width: 2; stroke-linecap: round"/>
   </g>
   <g id="line2d_91">
    <path d="M 136.53 447.93 
L 150.03 461.43 
" clip-path="url(#pc770874978)" style="fill: none; stroke: #000000; stroke-width: 2; stroke-linecap: round"/>
   </g>
   <g id="line2d_92">
    <path d="M 136.53 389.43 
L 150.03 375.93 
" clip-path="url(#pc770874978)" style="fill: none; stroke: #000000; stroke-width: 2; stroke-linecap: round"/>
   </g>
   <g id="line2d_93">
    <path d="M 136.53 375.93 
L 150.03 389.43 
" clip-path="url(#pc770874978)" style="fill: none; stroke: #000000; stroke-width: 2; stroke-linecap: round"/>
   </g>
   <g id="line2d_94">
    <path d="M 136.53 317.43 
L 150.03 303.93 
" clip-path="url(#pc770874978)" style="fill: none; stroke: #000000; stroke-width: 2; stroke-linecap: round"/>
   </g>
   <g id="line2d_95">
    <path d="M 136.53 303.93 
L 150.03 317.43 
" clip-path="url(#pc770874978)" style="fill: none; stroke: #000000; stroke-width: 2; stroke-linecap: round"/>
   </g>
   <g id="line2d_96">
    <path d="M 136.53 245.43 
L 150.03 231.93 
" clip-path="url(#pc770874978)" style="fill: none; stroke: #000000; stroke-width: 2; stroke-linecap: round"/>
   </g>
   <g id="line2d_97">
    <path d="M 136.53 231.93 
L 150.03 245.43 
" clip-path="url(#pc770874978)" style="fill: none; stroke: #000000; stroke-width: 2; stroke-linecap: round"/>
   </g>
   <g id="line2d_98">
    <path d="M 136.53 173.43 
L 150.03 159.93 
" clip-path="url(#pc770874978)" style="fill: none; stroke: #000000; stroke-width: 2; stroke-linecap: round"/>
   </g>
   <g id="line2d_99">
    <path d="M 136.53 159.93 
L 150.03 173.43 
" clip-path="url(#pc770874978)" style="fill: none; stroke: #000000; stroke-width: 2; stroke-linecap: round"/>
   </g>
   <g id="line2d_100">
    <path d="M 136.53 101.43 
L 150.03 87.93 
" clip-path="url(#pc770874978)" style="fill: none; stroke: #000000; stroke-width: 2; stroke-linecap: round"/>
   </g>
   <g id="line2d_101">
    <path d="M 136.53 87.93 
L 150.03 101.43 
" clip-path="url(#pc770874978)" style="fill: none; stroke: #000000; stroke-width: 2; stroke-linecap: round"/>
   </g>
   <g id="line2d_102">
    <path d="M 136.53 29.43 
L 150.03 15.93 
" clip-path="url(#pc770874978)" style="fill: none; stroke: #000000; stroke-width: 2; stroke-linecap: round"/>
   </g>
   <g id="line2d_103">
    <path d="M 136.53 15.93 
L 150.03 29.43 
" clip-path="url(#pc770874978)" style="fill: none; stroke: #000000; stroke-width: 2; stroke-linecap: round"/>
   </g>
   <g id="text_1">
    <!-- RESET -->
    <g transform="translate(159.333594 1097.692344) scale(0.11 -0.11)">
     <defs>
      <path id="DejaVuSans-52" d="M 2841 2188 
Q 3044 2119 3236 1894 
Q 3428 1669 3622 1275 
L 4263 0 
L 3584 0 
L 2988 1197 
Q 2756 1666 2539 1819 
Q 2322 1972 1947 1972 
L 1259 1972 
L 1259 0 
L 628 0 
L 628 4666 
L 2053 4666 
Q 2853 4666 3247 4331 
Q 3641 3997 3641 3322 
Q 3641 2881 3436 2590 
Q 3231 2300 2841 2188 
z
M 1259 4147 
L 1259 2491 
L 2053 2491 
Q 2509 2491 2742 2702 
Q 2975 2913 2975 3322 
Q 2975 3731 2742 3939 
Q 2509 4147 2053 4147 
L 1259 4147 
z
" transform="scale(0.015625)"/>
      <path id="DejaVuSans-45" d="M 628 4666 
L 3578 4666 
L 3578 4134 
L 1259 4134 
L 1259 2753 
L 3481 2753 
L 3481 2222 
L 1259 2222 
L 1259 531 
L 3634 531 
L 3634 0 
L 628 0 
L 628 4666 
z
" transform="scale(0.015625)"/>
      <path id="DejaVuSans-53" d="M 3425 4513 
L 3425 3897 
Q 3066 4069 2747 4153 
Q 2428 4238 2131 4238 
Q 1616 4238 1336 4038 
Q 1056 3838 1056 3469 
Q 1056 3159 1242 3001 
Q 1428 2844 1947 2747 
L 2328 2669 
Q 3034 2534 3370 2195 
Q 3706 1856 3706 1288 
Q 3706 609 3251 259 
Q 2797 -91 1919 -91 
Q 1588 -91 1214 -16 
Q 841 59 441 206 
L 441 856 
Q 825 641 1194 531 
Q 1563 422 1919 422 
Q 2459 422 2753 634 
Q 3047 847 3047 1241 
Q 3047 1584 2836 1778 
Q 2625 1972 2144 2069 
L 1759 2144 
Q 1053 2284 737 2584 
Q 422 2884 422 3419 
Q 422 4038 858 4394 
Q 1294 4750 2059 4750 
Q 2388 4750 2728 4690 
Q 3069 4631 3425 4513 
z
" transform="scale(0.015625)"/>
      <path id="DejaVuSans-54" d="M -19 4666 
L 3928 4666 
L 3928 4134 
L 2272 4134 
L 2272 0 
L 1638 0 
L 1638 4134 
L -19 4134 
L -19 4666 
z
" transform="scale(0.015625)"/>
     </defs>
     <use xlink:href="#DejaVuSans-52"/>
     <use xlink:href="#DejaVuSans-45" transform="translate(69.482422 0)"/>
     <use xlink:href="#DejaVuSans-53" transform="translate(132.666016 0)"/>
     <use xlink:href="#DejaVuSans-45" transform="translate(196.142578 0)"/>
     <use xlink:href="#DejaVuSans-54" transform="translate(259.326172 0)"/>
    </g>
   </g>
   <g id="text_2">
    <!-- RST -->
    <g transform="translate(202.68 1106.543125) scale(0.14 -0.14)">
     <use xlink:href="#DejaVuSans-52"/>
     <use xlink:href="#DejaVuSans-53" transform="translate(69.482422 0)"/>
     <use xlink:href="#DejaVuSans-54" transform="translate(132.958984 0)"/>
    </g>
   </g>
   <g id="text_3">
    <!-- 3.3V -->
    <g transform="translate(169.561875 1025.692344) scale(0.11 -0.11)">
     <defs>
      <path id="DejaVuSans-33" d="M 2597 2516 
Q 3050 2419 3304 2112 
Q 3559 1806 3559 1356 
Q 3559 666 3084 287 
Q 2609 -91 1734 -91 
Q 1441 -91 1130 -33 
Q 819 25 488 141 
L 488 750 
Q 750 597 1062 519 
Q 1375 441 1716 441 
Q 2309 441 2620 675 
Q 2931 909 2931 1356 
Q 2931 1769 2642 2001 
Q 2353 2234 1838 2234 
L 1294 2234 
L 1294 2753 
L 1863 2753 
Q 2328 2753 2575 2939 
Q 2822 3125 2822 3475 
Q 2822 3834 2567 4026 
Q 2313 4219 1838 4219 
Q 1578 4219 1281 4162 
Q 984 4106 628 3988 
L 628 4550 
Q 988 4650 1302 4700 
Q 1616 4750 1894 4750 
Q 2613 4750 3031 4423 
Q 3450 4097 3450 3541 
Q 3450 3153 3228 2886 
Q 3006 2619 2597 2516 
z
" transform="scale(0.015625)"/>
      <path id="DejaVuSans-2e" d="M 684 794 
L 1344 794 
L 1344 0 
L 684 0 
L 684 794 
z
" transform="scale(0.015625)"/>
      <path id="DejaVuSans-56" d="M 1831 0 
L 50 4666 
L 709 4666 
L 2188 738 
L 3669 4666 
L 4325 4666 
L 2547 0 
L 1831 0 
z
" transform="scale(0.015625)"/>
     </defs>
     <use xlink:href="#DejaVuSans-33"/>
     <use xlink:href="#DejaVuSans-2e" transform="translate(63.623047 0)"/>
     <use xlink:href="#DejaVuSans-33" transform="translate(95.410156 0)"/>
     <use xlink:href="#DejaVuSans-56" transform="translate(159.033203 0)"/>
    </g>
   </g>
   <g id="text_4">
    <!-- V33 -->
    <g transform="translate(202.68 1034.543125) scale(0.14 -0.14)">
     <use xlink:href="#DejaVuSans-56"/>
     <use xlink:href="#DejaVuSans-33" transform="translate(68.408203 0)"/>
     <use xlink:href="#DejaVuSans-33" transform="translate(132.03125 0)"/>
    </g>
   </g>
   <g id="text_5">
    <!-- AREF P0.31 -->
    <g transform="translate(131.513906 953.692344) scale(0.11 -0.11)">
     <defs>
      <path id="DejaVuSans-41" d="M 2188 4044 
L 1331 1722 
L 3047 1722 
L 2188 4044 
z
M 1831 4666 
L 2547 4666 
L 4325 0 
L 3669 0 
L 3244 1197 
L 1141 1197 
L 716 0 
L 50 0 
L 1831 4666 
z
" transform="scale(0.015625)"/>
      <path id="DejaVuSans-46" d="M 628 4666 
L 3309 4666 
L 3309 4134 
L 1259 4134 
L 1259 2759 
L 3109 2759 
L 3109 2228 
L 1259 2228 
L 1259 0 
L 628 0 
L 628 4666 
z
" transform="scale(0.015625)"/>
      <path id="DejaVuSans-20" transform="scale(0.015625)"/>
      <path id="DejaVuSans-50" d="M 1259 4147 
L 1259 2394 
L 2053 2394 
Q 2494 2394 2734 2622 
Q 2975 2850 2975 3272 
Q 2975 3691 2734 3919 
Q 2494 4147 2053 4147 
L 1259 4147 
z
M 628 4666 
L 2053 4666 
Q 2838 4666 3239 4311 
Q 3641 3956 3641 3272 
Q 3641 2581 3239 2228 
Q 2838 1875 2053 1875 
L 1259 1875 
L 1259 0 
L 628 0 
L 628 4666 
z
" transform="scale(0.015625)"/>
      <path id="DejaVuSans-30" d="M 2034 4250 
Q 1547 4250 1301 3770 
Q 1056 3291 1056 2328 
Q 1056 1369 1301 889 
Q 1547 409 2034 409 
Q 2525 409 2770 889 
Q 3016 1369 3016 2328 
Q 3016 3291 2770 3770 
Q 2525 4250 2034 4250 
z
M 2034 4750 
Q 2819 4750 3233 4129 
Q 3647 3509 3647 2328 
Q 3647 1150 3233 529 
Q 2819 -91 2034 -91 
Q 1250 -91 836 529 
Q 422 1150 422 2328 
Q 422 3509 836 4129 
Q 1250 4750 2034 4750 
z
" transform="scale(0.015625)"/>
      <path id="DejaVuSans-31" d="M 794 531 
L 1825 531 
L 1825 4091 
L 703 3866 
L 703 4441 
L 1819 4666 
L 2450 4666 
L 2450 531 
L 3481 531 
L 3481 0 
L 794 0 
L 794 531 
z
" transform="scale(0.015625)"/>
     </defs>
     <use xlink:href="#DejaVuSans-41"/>
     <use xlink:href="#DejaVuSans-52" transform="translate(68.408203 0)"/>
     <use xlink:href="#DejaVuSans-45" transform="translate(137.890625 0)"/>
     <use xlink:href="#DejaVuSans-46" transform="translate(201.074219 0)"/>
     <use xlink:href="#DejaVuSans-20" transform="translate(258.59375 0)"/>
     <use xlink:href="#DejaVuSans-50" transform="translate(290.380859 0)"/>
     <use xlink:href="#DejaVuSans-30" transform="translate(350.683594 0)"/>
     <use xlink:href="#DejaVuSans-2e" transform="translate(414.306641 0)"/>
     <use xlink:href="#DejaVuSans-33" transform="translate(446.09375 0)"/>
     <use xlink:href="#DejaVuSans-31" transform="translate(509.716797 0)"/>
    </g>
   </g>
   <g id="text_6">
    <!-- AREF -->
    <g transform="translate(202.68 962.543125) scale(0.14 -0.14)">
     <use xlink:href="#DejaVuSans-41"/>
     <use xlink:href="#DejaVuSans-52" transform="translate(68.408203 0)"/>
     <use xlink:href="#DejaVuSans-45" transform="translate(137.890625 0)"/>
     <use xlink:href="#DejaVuSans-46" transform="translate(201.074219 0)"/>
    </g>
   </g>
   <g id="text_7">
    <!-- GND -->
    <g transform="translate(169.357344 881.692344) scale(0.11 -0.11)">
     <defs>
      <path id="DejaVuSans-47" d="M 3809 666 
L 3809 1919 
L 2778 1919 
L 2778 2438 
L 4434 2438 
L 4434 434 
Q 4069 175 3628 42 
Q 3188 -91 2688 -91 
Q 1594 -91 976 548 
Q 359 1188 359 2328 
Q 359 3472 976 4111 
Q 1594 4750 2688 4750 
Q 3144 4750 3555 4637 
Q 3966 4525 4313 4306 
L 4313 3634 
Q 3963 3931 3569 4081 
Q 3175 4231 2741 4231 
Q 1884 4231 1454 3753 
Q 1025 3275 1025 2328 
Q 1025 1384 1454 906 
Q 1884 428 2741 428 
Q 3075 428 3337 486 
Q 3600 544 3809 666 
z
" transform="scale(0.015625)"/>
      <path id="DejaVuSans-4e" d="M 628 4666 
L 1478 4666 
L 3547 763 
L 3547 4666 
L 4159 4666 
L 4159 0 
L 3309 0 
L 1241 3903 
L 1241 0 
L 628 0 
L 628 4666 
z
" transform="scale(0.015625)"/>
      <path id="DejaVuSans-44" d="M 1259 4147 
L 1259 519 
L 2022 519 
Q 2988 519 3436 956 
Q 3884 1394 3884 2338 
Q 3884 3275 3436 3711 
Q 2988 4147 2022 4147 
L 1259 4147 
z
M 628 4666 
L 1925 4666 
Q 3281 4666 3915 4102 
Q 4550 3538 4550 2338 
Q 4550 1131 3912 565 
Q 3275 0 1925 0 
L 628 0 
L 628 4666 
z
" transform="scale(0.015625)"/>
     </defs>
     <use xlink:href="#DejaVuSans-47"/>
     <use xlink:href="#DejaVuSans-4e" transform="translate(77.490234 0)"/>
     <use xlink:href="#DejaVuSans-44" transform="translate(152.294922 0)"/>
    </g>
   </g>
   <g id="text_8">
    <!-- GNDL -->
    <g transform="translate(202.68 890.543125) scale(0.14 -0.14)">
     <defs>
      <path id="DejaVuSans-4c" d="M 628 4666 
L 1259 4666 
L 1259 531 
L 3531 531 
L 3531 0 
L 628 0 
L 628 4666 
z
" transform="scale(0.015625)"/>
     </defs>
     <use xlink:href="#DejaVuSans-47"/>
     <use xlink:href="#DejaVuSans-4e" transform="translate(77.490234 0)"/>
     <use xlink:href="#DejaVuSans-44" transform="translate(152.294922 0)"/>
     <use xlink:href="#DejaVuSans-4c" transform="translate(229.296875 0)"/>
    </g>
   </g>
   <g id="text_9">
    <!-- A0 P0.04 -->
    <g transform="translate(145.435781 809.692344) scale(0.11 -0.11)">
     <defs>
      <path id="DejaVuSans-34" d="M 2419 4116 
L 825 1625 
L 2419 1625 
L 2419 4116 
z
M 2253 4666 
L 3047 4666 
L 3047 1625 
L 3713 1625 
L 3713 1100 
L 3047 1100 
L 3047 0 
L 2419 0 
L 2419 1100 
L 313 1100 
L 313 1709 
L 2253 4666 
z
" transform="scale(0.015625)"/>
     </defs>
     <use xlink:href="#DejaVuSans-41"/>
     <use xlink:href="#DejaVuSans-30" transform="translate(68.408203 0)"/>
     <use xlink:href="#DejaVuSans-20" transform="translate(132.03125 0)"/>
     <use xlink:href="#DejaVuSans-50" transform="translate(163.818359 0)"/>
     <use xlink:href="#DejaVuSans-30" transform="translate(224.121094 0)"/>
     <use xlink:href="#DejaVuSans-2e" transform="translate(287.744141 0)"/>
     <use xlink:href="#DejaVuSans-30" transform="translate(319.53125 0)"/>
     <use xlink:href="#DejaVuSans-34" transform="translate(383.154297 0)"/>
    </g>
   </g>
   <g id="text_10">
    <!-- A0 -->
    <g transform="translate(202.68 818.543125) scale(0.14 -0.14)">
     <use xlink:href="#DejaVuSans-41"/>
     <use xlink:href="#DejaVuSans-30" transform="translate(68.408203 0)"/>
    </g>
   </g>
   <g id="text_11">
    <!-- A1 P0.05 -->
    <g transform="translate(145.435781 737.692344) scale(0.11 -0.11)">
     <defs>
      <path id="DejaVuSans-35" d="M 691 4666 
L 3169 4666 
L 3169 4134 
L 1269 4134 
L 1269 2991 
Q 1406 3038 1543 3061 
Q 1681 3084 1819 3084 
Q 2600 3084 3056 2656 
Q 3513 2228 3513 1497 
Q 3513 744 3044 326 
Q 2575 -91 1722 -91 
Q 1428 -91 1123 -41 
Q 819 9 494 109 
L 494 744 
Q 775 591 1075 516 
Q 1375 441 1709 441 
Q 2250 441 2565 725 
Q 2881 1009 2881 1497 
Q 2881 1984 2565 2268 
Q 2250 2553 1709 2553 
Q 1456 2553 1204 2497 
Q 953 2441 691 2322 
L 691 4666 
z
" transform="scale(0.015625)"/>
     </defs>
     <use xlink:href="#DejaVuSans-41"/>
     <use xlink:href="#DejaVuSans-31" transform="translate(68.408203 0)"/>
     <use xlink:href="#DejaVuSans-20" transform="translate(132.03125 0)"/>
     <use xlink:href="#DejaVuSans-50" transform="translate(163.818359 0)"/>
     <use xlink:href="#DejaVuSans-30" transform="translate(224.121094 0)"/>
     <use xlink:href="#DejaVuSans-2e" transform="translate(287.744141 0)"/>
     <use xlink:href="#DejaVuSans-30" transform="translate(319.53125 0)"/>
     <use xlink:href="#DejaVuSans-35" transform="translate(383.154297 0)"/>
    </g>
   </g>
   <g id="text_12">
    <!-- A1 -->
    <g transform="translate(202.68 746.543125) scale(0.14 -0.14)">
     <use xlink:href="#DejaVuSans-41"/>
     <use xlink:href="#DejaVuSans-31" transform="translate(68.408203 0)"/>
    </g>
   </g>
   <g id="text_13">
    <!-- A2 P0.30 -->
    <g transform="translate(145.435781 665.692344) scale(0.11 -0.11)">
     <defs>
      <path id="DejaVuSans-32" d="M 1228 531 
L 3431 531 
L 3431 0 
L 469 0 
L 469 531 
Q 828 903 1448 1529 
Q 2069 2156 2228 2338 
Q 2531 2678 2651 2914 
Q 2772 3150 2772 3378 
Q 2772 3750 2511 3984 
Q 2250 4219 1831 4219 
Q 1534 4219 1204 4116 
Q 875 4013 500 3803 
L 500 4441 
Q 881 4594 1212 4672 
Q 1544 4750 1819 4750 
Q 2544 4750 2975 4387 
Q 3406 4025 3406 3419 
Q 3406 3131 3298 2873 
Q 3191 2616 2906 2266 
Q 2828 2175 2409 1742 
Q 1991 1309 1228 531 
z
" transform="scale(0.015625)"/>
     </defs>
     <use xlink:href="#DejaVuSans-41"/>
     <use xlink:href="#DejaVuSans-32" transform="translate(68.408203 0)"/>
     <use xlink:href="#DejaVuSans-20" transform="translate(132.03125 0)"/>
     <use xlink:href="#DejaVuSans-50" transform="translate(163.818359 0)"/>
     <use xlink:href="#DejaVuSans-30" transform="translate(224.121094 0)"/>
     <use xlink:href="#DejaVuSans-2e" transform="translate(287.744141 0)"/>
     <use xlink:href="#DejaVuSans-33" transform="translate(319.53125 0)"/>
     <use xlink:href="#DejaVuSans-30" transform="translate(383.154297 0)"/>
    </g>
   </g>
   <g id="text_14">
    <!-- A2 -->
    <g transform="translate(202.68 674.543125) scale(0.14 -0.14)">
     <use xlink:href="#DejaVuSans-41"/>
     <use xlink:href="#DejaVuSans-32" transform="translate(68.408203 0)"/>
    </g>
   </g>
   <g id="text_15">
    <!-- A3 P0.28 -->
    <g transform="translate(145.435781 593.692344) scale(0.11 -0.11)">
     <defs>
      <path id="DejaVuSans-38" d="M 2034 2216 
Q 1584 2216 1326 1975 
Q 1069 1734 1069 1313 
Q 1069 891 1326 650 
Q 1584 409 2034 409 
Q 2484 409 2743 651 
Q 3003 894 3003 1313 
Q 3003 1734 2745 1975 
Q 2488 2216 2034 2216 
z
M 1403 2484 
Q 997 2584 770 2862 
Q 544 3141 544 3541 
Q 544 4100 942 4425 
Q 1341 4750 2034 4750 
Q 2731 4750 3128 4425 
Q 3525 4100 3525 3541 
Q 3525 3141 3298 2862 
Q 3072 2584 2669 2484 
Q 3125 2378 3379 2068 
Q 3634 1759 3634 1313 
Q 3634 634 3220 271 
Q 2806 -91 2034 -91 
Q 1263 -91 848 271 
Q 434 634 434 1313 
Q 434 1759 690 2068 
Q 947 2378 1403 2484 
z
M 1172 3481 
Q 1172 3119 1398 2916 
Q 1625 2713 2034 2713 
Q 2441 2713 2670 2916 
Q 2900 3119 2900 3481 
Q 2900 3844 2670 4047 
Q 2441 4250 2034 4250 
Q 1625 4250 1398 4047 
Q 1172 3844 1172 3481 
z
" transform="scale(0.015625)"/>
     </defs>
     <use xlink:href="#DejaVuSans-41"/>
     <use xlink:href="#DejaVuSans-33" transform="translate(68.408203 0)"/>
     <use xlink:href="#DejaVuSans-20" transform="translate(132.03125 0)"/>
     <use xlink:href="#DejaVuSans-50" transform="translate(163.818359 0)"/>
     <use xlink:href="#DejaVuSans-30" transform="translate(224.121094 0)"/>
     <use xlink:href="#DejaVuSans-2e" transform="translate(287.744141 0)"/>
     <use xlink:href="#DejaVuSans-32" transform="translate(319.53125 0)"/>
     <use xlink:href="#DejaVuSans-38" transform="translate(383.154297 0)"/>
    </g>
   </g>
   <g id="text_16">
    <!-- A3 -->
    <g transform="translate(202.68 602.543125) scale(0.14 -0.14)">
     <use xlink:href="#DejaVuSans-41"/>
     <use xlink:href="#DejaVuSans-33" transform="translate(68.408203 0)"/>
    </g>
   </g>
   <g id="text_17">
    <!-- A4 P0.02 -->
    <g transform="translate(145.435781 521.692344) scale(0.11 -0.11)">
     <use xlink:href="#DejaVuSans-41"/>
     <use xlink:href="#DejaVuSans-34" transform="translate(68.408203 0)"/>
     <use xlink:href="#DejaVuSans-20" transform="translate(132.03125 0)"/>
     <use xlink:href="#DejaVuSans-50" transform="translate(163.818359 0)"/>
     <use xlink:href="#DejaVuSans-30" transform="translate(224.121094 0)"/>
     <use xlink:href="#DejaVuSans-2e" transform="translate(287.744141 0)"/>
     <use xlink:href="#DejaVuSans-30" transform="translate(319.53125 0)"/>
     <use xlink:href="#DejaVuSans-32" transform="translate(383.154297 0)"/>
    </g>
   </g>
   <g id="text_18">
    <!-- A4 -->
    <g transform="translate(202.68 530.543125) scale(0.14 -0.14)">
     <use xlink:href="#DejaVuSans-41"/>
     <use xlink:href="#DejaVuSans-34" transform="translate(68.408203 0)"/>
    </g>
   </g>
   <g id="text_19">
    <!-- A5 P0.03 -->
    <g transform="translate(145.435781 449.692344) scale(0.11 -0.11)">
     <use xlink:href="#DejaVuSans-41"/>
     <use xlink:href="#DejaVuSans-35" transform="translate(68.408203 0)"/>
     <use xlink:href="#DejaVuSans-20" transform="translate(132.03125 0)"/>
     <use xlink:href="#DejaVuSans-50" transform="translate(163.818359 0)"/>
     <use xlink:href="#DejaVuSans-30" transform="translate(224.121094 0)"/>
     <use xlink:href="#DejaVuSans-2e" transform="translate(287.744141 0)"/>
     <use xlink:href="#DejaVuSans-30" transform="translate(319.53125 0)"/>
     <use xlink:href="#DejaVuSans-33" transform="translate(383.154297 0)"/>
    </g>
   </g>
   <g id="text_20">
    <!-- A5 -->
    <g transform="translate(202.68 458.543125) scale(0.14 -0.14)">
     <use xlink:href="#DejaVuSans-41"/>
     <use xlink:href="#DejaVuSans-35" transform="translate(68.408203 0)"/>
    </g>
   </g>
   <g id="text_21">
    <!-- SCK P0.14 -->
    <g transform="translate(138.08125 377.692344) scale(0.11 -0.11)">
     <defs>
      <path id="DejaVuSans-43" d="M 4122 4306 
L 4122 3641 
Q 3803 3938 3442 4084 
Q 3081 4231 2675 4231 
Q 1875 4231 1450 3742 
Q 1025 3253 1025 2328 
Q 1025 1406 1450 917 
Q 1875 428 2675 428 
Q 3081 428 3442 575 
Q 3803 722 4122 1019 
L 4122 359 
Q 3791 134 3420 21 
Q 3050 -91 2638 -91 
Q 1578 -91 968 557 
Q 359 1206 359 2328 
Q 359 3453 968 4101 
Q 1578 4750 2638 4750 
Q 3056 4750 3426 4639 
Q 3797 4528 4122 4306 
z
" transform="scale(0.015625)"/>
      <path id="DejaVuSans-4b" d="M 628 4666 
L 1259 4666 
L 1259 2694 
L 3353 4666 
L 4166 4666 
L 1850 2491 
L 4331 0 
L 3500 0 
L 1259 2247 
L 1259 0 
L 628 0 
L 628 4666 
z
" transform="scale(0.015625)"/>
     </defs>
     <use xlink:href="#DejaVuSans-53"/>
     <use xlink:href="#DejaVuSans-43" transform="translate(63.476562 0)"/>
     <use xlink:href="#DejaVuSans-4b" transform="translate(133.300781 0)"/>
     <use xlink:href="#DejaVuSans-20" transform="translate(198.876953 0)"/>
     <use xlink:href="#DejaVuSans-50" transform="translate(230.664062 0)"/>
     <use xlink:href="#DejaVuSans-30" transform="translate(290.966797 0)"/>
     <use xlink:href="#DejaVuSans-2e" transform="translate(354.589844 0)"/>
     <use xlink:href="#DejaVuSans-31" transform="translate(386.376953 0)"/>
     <use xlink:href="#DejaVuSans-34" transform="translate(450 0)"/>
    </g>
   </g>
   <g id="text_22">
    <!-- SCK -->
    <g transform="translate(202.68 386.543125) scale(0.14 -0.14)">
     <use xlink:href="#DejaVuSans-53"/>
     <use xlink:href="#DejaVuSans-43" transform="translate(63.476562 0)"/>
     <use xlink:href="#DejaVuSans-4b" transform="translate(133.300781 0)"/>
    </g>
   </g>
   <g id="text_23">
    <!-- MOSI P0.13 -->
    <g transform="translate(131.580938 305.692344) scale(0.11 -0.11)">
     <defs>
      <path id="DejaVuSans-4d" d="M 628 4666 
L 1569 4666 
L 2759 1491 
L 3956 4666 
L 4897 4666 
L 4897 0 
L 4281 0 
L 4281 4097 
L 3078 897 
L 2444 897 
L 1241 4097 
L 1241 0 
L 628 0 
L 628 4666 
z
" transform="scale(0.015625)"/>
      <path id="DejaVuSans-4f" d="M 2522 4238 
Q 1834 4238 1429 3725 
Q 1025 3213 1025 2328 
Q 1025 1447 1429 934 
Q 1834 422 2522 422 
Q 3209 422 3611 934 
Q 4013 1447 4013 2328 
Q 4013 3213 3611 3725 
Q 3209 4238 2522 4238 
z
M 2522 4750 
Q 3503 4750 4090 4092 
Q 4678 3434 4678 2328 
Q 4678 1225 4090 567 
Q 3503 -91 2522 -91 
Q 1538 -91 948 565 
Q 359 1222 359 2328 
Q 359 3434 948 4092 
Q 1538 4750 2522 4750 
z
" transform="scale(0.015625)"/>
      <path id="DejaVuSans-49" d="M 628 4666 
L 1259 4666 
L 1259 0 
L 628 0 
L 628 4666 
z
" transform="scale(0.015625)"/>
     </defs>
     <use xlink:href="#DejaVuSans-4d"/>
     <use xlink:href="#DejaVuSans-4f" transform="translate(86.279297 0)"/>
     <use xlink:href="#DejaVuSans-53" transform="translate(164.990234 0)"/>
     <use xlink:href="#DejaVuSans-49" transform="translate(228.466797 0)"/>
     <use xlink:href="#DejaVuSans-20" transform="translate(257.958984 0)"/>
     <use xlink:href="#DejaVuSans-50" transform="translate(289.746094 0)"/>
     <use xlink:href="#DejaVuSans-30" transform="translate(350.048828 0)"/>
     <use xlink:href="#DejaVuSans-2e" transform="translate(413.671875 0)"/>
     <use xlink:href="#DejaVuSans-31" transform="translate(445.458984 0)"/>
     <use xlink:href="#DejaVuSans-33" transform="translate(509.082031 0)"/>
    </g>
   </g>
   <g id="text_24">
    <!-- MOSI -->
    <g transform="translate(202.68 314.543125) scale(0.14 -0.14)">
     <use xlink:href="#DejaVuSans-4d"/>
     <use xlink:href="#DejaVuSans-4f" transform="translate(86.279297 0)"/>
     <use xlink:href="#DejaVuSans-53" transform="translate(164.990234 0)"/>
     <use xlink:href="#DejaVuSans-49" transform="translate(228.466797 0)"/>
    </g>
   </g>
   <g id="text_25">
    <!-- MISO P0.15 -->
    <g transform="translate(131.580938 233.692344) scale(0.11 -0.11)">
     <use xlink:href="#DejaVuSans-4d"/>
     <use xlink:href="#DejaVuSans-49" transform="translate(86.279297 0)"/>
     <use xlink:href="#DejaVuSans-53" transform="translate(115.771484 0)"/>
     <use xlink:href="#DejaVuSans-4f" transform="translate(179.248047 0)"/>
     <use xlink:href="#DejaVuSans-20" transform="translate(257.958984 0)"/>
     <use xlink:href="#DejaVuSans-50" transform="translate(289.746094 0)"/>
     <use xlink:href="#DejaVuSans-30" transform="translate(350.048828 0)"/>
     <use xlink:href="#DejaVuSans-2e" transform="translate(413.671875 0)"/>
     <use xlink:href="#DejaVuSans-31" transform="translate(445.458984 0)"/>
     <use xlink:href="#DejaVuSans-35" transform="translate(509.082031 0)"/>
    </g>
   </g>
   <g id="text_26">
    <!-- MISO -->
    <g transform="translate(202.68 242.543125) scale(0.14 -0.14)">
     <use xlink:href="#DejaVuSans-4d"/>
     <use xlink:href="#DejaVuSans-49" transform="translate(86.279297 0)"/>
     <use xlink:href="#DejaVuSans-53" transform="translate(115.771484 0)"/>
     <use xlink:href="#DejaVuSans-4f" transform="translate(179.248047 0)"/>
    </g>
   </g>
   <g id="text_27">
    <!-- RX P0.24 -->
    <g transform="translate(144.780938 161.692344) scale(0.11 -0.11)">
     <defs>
      <path id="DejaVuSans-58" d="M 403 4666 
L 1081 4666 
L 2241 2931 
L 3406 4666 
L 4084 4666 
L 2584 2425 
L 4184 0 
L 3506 0 
L 2194 1984 
L 872 0 
L 191 0 
L 1856 2491 
L 403 4666 
z
" transform="scale(0.015625)"/>
     </defs>
     <use xlink:href="#DejaVuSans-52"/>
     <use xlink:href="#DejaVuSans-58" transform="translate(69.482422 0)"/>
     <use xlink:href="#DejaVuSans-20" transform="translate(137.988281 0)"/>
     <use xlink:href="#DejaVuSans-50" transform="translate(169.775391 0)"/>
     <use xlink:href="#DejaVuSans-30" transform="translate(230.078125 0)"/>
     <use xlink:href="#DejaVuSans-2e" transform="translate(293.701172 0)"/>
     <use xlink:href="#DejaVuSans-32" transform="translate(325.488281 0)"/>
     <use xlink:href="#DejaVuSans-34" transform="translate(389.111328 0)"/>
    </g>
   </g>
   <g id="text_28">
    <!-- RX -->
    <g transform="translate(202.68 170.543125) scale(0.14 -0.14)">
     <use xlink:href="#DejaVuSans-52"/>
     <use xlink:href="#DejaVuSans-58" transform="translate(69.482422 0)"/>
    </g>
   </g>
   <g id="text_29">
    <!-- TX P0.25 -->
    <g transform="translate(145.705625 89.692344) scale(0.11 -0.11)">
     <use xlink:href="#DejaVuSans-54"/>
     <use xlink:href="#DejaVuSans-58" transform="translate(61.083984 0)"/>
     <use xlink:href="#DejaVuSans-20" transform="translate(129.589844 0)"/>
     <use xlink:href="#DejaVuSans-50" transform="translate(161.376953 0)"/>
     <use xlink:href="#DejaVuSans-30" transform="translate(221.679688 0)"/>
     <use xlink:href="#DejaVuSans-2e" transform="translate(285.302734 0)"/>
     <use xlink:href="#DejaVuSans-32" transform="translate(317.089844 0)"/>
     <use xlink:href="#DejaVuSans-35" transform="translate(380.712891 0)"/>
    </g>
   </g>
   <g id="text_30">
    <!-- TX -->
    <g transform="translate(202.68 98.543125) scale(0.14 -0.14)">
     <use xlink:href="#DejaVuSans-54"/>
     <use xlink:href="#DejaVuSans-58" transform="translate(61.083984 0)"/>
    </g>
   </g>
   <g id="text_31">
    <!-- D2 P0.10 -->
    <g transform="translate(144.490469 17.692344) scale(0.11 -0.11)">
     <use xlink:href="#DejaVuSans-44"/>
     <use xlink:href="#DejaVuSans-32" transform="translate(77.001953 0)"/>
     <use xlink:href="#DejaVuSans-20" transform="translate(140.625 0)"/>
     <use xlink:href="#DejaVuSans-50" transform="translate(172.412109 0)"/>
     <use xlink:href="#DejaVuSans-30" transform="translate(232.714844 0)"/>
     <use xlink:href="#DejaVuSans-2e" transform="translate(296.337891 0)"/>
     <use xlink:href="#DejaVuSans-31" transform="translate(328.125 0)"/>
     <use xlink:href="#DejaVuSans-30" transform="translate(391.748047 0)"/>
    </g>
   </g>
   <g id="text_32">
    <!-- D2 -->
    <g transform="translate(202.68 26.543125) scale(0.14 -0.14)">
     <use xlink:href="#DejaVuSans-44"/>
     <use xlink:href="#DejaVuSans-32" transform="translate(77.001953 0)"/>
    </g>
   </g>
   <g id="text_33">
    <!-- VBAT -->
    <g transform="translate(379.98 953.692344) scale(0.11 -0.11)">
     <defs>
      <path id="DejaVuSans-42" d="M 1259 2228 
L 1259 519 
L 2272 519 
Q 2781 519 3026 730 
Q 3272 941 3272 1375 
Q 3272 1813 3026 2020 
Q 2781 2228 2272 2228 
L 1259 2228 
z
M 1259 4147 
L 1259 2741 
L 2194 2741 
Q 2656 2741 2882 2914 
Q 3109 3088 3109 3444 
Q 3109 3797 2882 3972 
Q 2656 4147 2194 4147 
L 1259 4147 
z
M 628 4666 
L 2241 4666 
Q 2963 4666 3353 4366 
Q 3744 4066 3744 3513 
Q 3744 3084 3544 2831 
Q 3344 2578 2956 2516 
Q 3422 2416 3680 2098 
Q 3938 1781 3938 1306 
Q 3938 681 3513 340 
Q 3088 0 2303 0 
L 628 0 
L 628 4666 
z
" transform="scale(0.015625)"/>
     </defs>
     <use xlink:href="#DejaVuSans-56"/>
     <use xlink:href="#DejaVuSans-42" transform="translate(68.408203 0)"/>
     <use xlink:href="#DejaVuSans-41" transform="translate(137.011719 0)"/>
     <use xlink:href="#DejaVuSans-54" transform="translate(197.669922 0)"/>
    </g>
   </g>
   <g id="text_34">
    <!-- VBAT -->
    <g transform="translate(335.655 962.543125) scale(0.14 -0.14)">
     <use xlink:href="#DejaVuSans-56"/>
     <use xlink:href="#DejaVuSans-42" transform="translate(68.408203 0)"/>
     <use xlink:href="#DejaVuSans-41" transform="translate(137.011719 0)"/>
     <use xlink:href="#DejaVuSans-54" transform="translate(197.669922 0)"/>
    </g>
   </g>
   <g id="text_35">
    <!-- EN -->
    <g transform="translate(379.98 881.692344) scale(0.11 -0.11)">
     <use xlink:href="#DejaVuSans-45"/>
     <use xlink:href="#DejaVuSans-4e" transform="translate(63.183594 0)"/>
    </g>
   </g>
   <g id="text_36">
    <!-- EN -->
    <g transform="translate(352.56 890.543125) scale(0.14 -0.14)">
     <use xlink:href="#DejaVuSans-45"/>
     <use xlink:href="#DejaVuSans-4e" transform="translate(63.183594 0)"/>
    </g>
   </g>
   <g id="text_37">
    <!-- VBUS -->
    <g transform="translate(379.98 809.692344) scale(0.11 -0.11)">
     <defs>
      <path id="DejaVuSans-55" d="M 556 4666 
L 1191 4666 
L 1191 1831 
Q 1191 1081 1462 751 
Q 1734 422 2344 422 
Q 2950 422 3222 751 
Q 3494 1081 3494 1831 
L 3494 4666 
L 4128 4666 
L 4128 1753 
Q 4128 841 3676 375 
Q 3225 -91 2344 -91 
Q 1459 -91 1007 375 
Q 556 841 556 1753 
L 556 4666 
z
" transform="scale(0.015625)"/>
     </defs>
     <use xlink:href="#DejaVuSans-56"/>
     <use xlink:href="#DejaVuSans-42" transform="translate(68.408203 0)"/>
     <use xlink:href="#DejaVuSans-55" transform="translate(137.011719 0)"/>
     <use xlink:href="#DejaVuSans-53" transform="translate(210.205078 0)"/>
    </g>
   </g>
   <g id="text_38">
    <!-- VBUS -->
    <g transform="translate(333.56375 818.543125) scale(0.14 -0.14)">
     <use xlink:href="#DejaVuSans-56"/>
     <use xlink:href="#DejaVuSans-42" transform="translate(68.408203 0)"/>
     <use xlink:href="#DejaVuSans-55" transform="translate(137.011719 0)"/>
     <use xlink:href="#DejaVuSans-53" transform="translate(210.205078 0)"/>
    </g>
   </g>
   <g id="text_39">
    <!-- D13 P1.09 -->
    <g transform="translate(379.98 737.692344) scale(0.11 -0.11)">
     <defs>
      <path id="DejaVuSans-39" d="M 703 97 
L 703 672 
Q 941 559 1184 500 
Q 1428 441 1663 441 
Q 2288 441 2617 861 
Q 2947 1281 2994 2138 
Q 2813 1869 2534 1725 
Q 2256 1581 1919 1581 
Q 1219 1581 811 2004 
Q 403 2428 403 3163 
Q 403 3881 828 4315 
Q 1253 4750 1959 4750 
Q 2769 4750 3195 4129 
Q 3622 3509 3622 2328 
Q 3622 1225 3098 567 
Q 2575 -91 1691 -91 
Q 1453 -91 1209 -44 
Q 966 3 703 97 
z
M 1959 2075 
Q 2384 2075 2632 2365 
Q 2881 2656 2881 3163 
Q 2881 3666 2632 3958 
Q 2384 4250 1959 4250 
Q 1534 4250 1286 3958 
Q 1038 3666 1038 3163 
Q 1038 2656 1286 2365 
Q 1534 2075 1959 2075 
z
" transform="scale(0.015625)"/>
     </defs>
     <use xlink:href="#DejaVuSans-44"/>
     <use xlink:href="#DejaVuSans-31" transform="translate(77.001953 0)"/>
     <use xlink:href="#DejaVuSans-33" transform="translate(140.625 0)"/>
     <use xlink:href="#DejaVuSans-20" transform="translate(204.248047 0)"/>
     <use xlink:href="#DejaVuSans-50" transform="translate(236.035156 0)"/>
     <use xlink:href="#DejaVuSans-31" transform="translate(296.337891 0)"/>
     <use xlink:href="#DejaVuSans-2e" transform="translate(359.960938 0)"/>
     <use xlink:href="#DejaVuSans-30" transform="translate(391.748047 0)"/>
     <use xlink:href="#DejaVuSans-39" transform="translate(455.371094 0)"/>
    </g>
   </g>
   <g id="text_40">
    <!-- D13 -->
    <g transform="translate(343.285 746.543125) scale(0.14 -0.14)">
     <use xlink:href="#DejaVuSans-44"/>
     <use xlink:href="#DejaVuSans-31" transform="translate(77.001953 0)"/>
     <use xlink:href="#DejaVuSans-33" transform="translate(140.625 0)"/>
    </g>
   </g>
   <g id="text_41">
    <!-- D12 P0.08 -->
    <g transform="translate(379.98 665.692344) scale(0.11 -0.11)">
     <use xlink:href="#DejaVuSans-44"/>
     <use xlink:href="#DejaVuSans-31" transform="translate(77.001953 0)"/>
     <use xlink:href="#DejaVuSans-32" transform="translate(140.625 0)"/>
     <use xlink:href="#DejaVuSans-20" transform="translate(204.248047 0)"/>
     <use xlink:href="#DejaVuSans-50" transform="translate(236.035156 0)"/>
     <use xlink:href="#DejaVuSans-30" transform="translate(296.337891 0)"/>
     <use xlink:href="#DejaVuSans-2e" transform="translate(359.960938 0)"/>
     <use xlink:href="#DejaVuSans-30" transform="translate(391.748047 0)"/>
     <use xlink:href="#DejaVuSans-38" transform="translate(455.371094 0)"/>
    </g>
   </g>
   <g id="text_42">
    <!-- D12 -->
    <g transform="translate(343.285 674.543125) scale(0.14 -0.14)">
     <use xlink:href="#DejaVuSans-44"/>
     <use xlink:href="#DejaVuSans-31" transform="translate(77.001953 0)"/>
     <use xlink:href="#DejaVuSans-32" transform="translate(140.625 0)"/>
    </g>
   </g>
   <g id="text_43">
    <!-- D11 P0.06 -->
    <g transform="translate(379.98 593.692344) scale(0.11 -0.11)">
     <defs>
      <path id="DejaVuSans-36" d="M 2113 2584 
Q 1688 2584 1439 2293 
Q 1191 2003 1191 1497 
Q 1191 994 1439 701 
Q 1688 409 2113 409 
Q 2538 409 2786 701 
Q 3034 994 3034 1497 
Q 3034 2003 2786 2293 
Q 2538 2584 2113 2584 
z
M 3366 4563 
L 3366 3988 
Q 3128 4100 2886 4159 
Q 2644 4219 2406 4219 
Q 1781 4219 1451 3797 
Q 1122 3375 1075 2522 
Q 1259 2794 1537 2939 
Q 1816 3084 2150 3084 
Q 2853 3084 3261 2657 
Q 3669 2231 3669 1497 
Q 3669 778 3244 343 
Q 2819 -91 2113 -91 
Q 1303 -91 875 529 
Q 447 1150 447 2328 
Q 447 3434 972 4092 
Q 1497 4750 2381 4750 
Q 2619 4750 2861 4703 
Q 3103 4656 3366 4563 
z
" transform="scale(0.015625)"/>
     </defs>
     <use xlink:href="#DejaVuSans-44"/>
     <use xlink:href="#DejaVuSans-31" transform="translate(77.001953 0)"/>
     <use xlink:href="#DejaVuSans-31" transform="translate(140.625 0)"/>
     <use xlink:href="#DejaVuSans-20" transform="translate(204.248047 0)"/>
     <use xlink:href="#DejaVuSans-50" transform="translate(236.035156 0)"/>
     <use xlink:href="#DejaVuSans-30" transform="translate(296.337891 0)"/>
     <use xlink:href="#DejaVuSans-2e" transform="translate(359.960938 0)"/>
     <use xlink:href="#DejaVuSans-30" transform="translate(391.748047 0)"/>
     <use xlink:href="#DejaVuSans-36" transform="translate(455.371094 0)"/>
    </g>
   </g>
   <g id="text_44">
    <!-- D11 -->
    <g transform="translate(343.285 602.543125) scale(0.14 -0.14)">
     <use xlink:href="#DejaVuSans-44"/>
     <use xlink:href="#DejaVuSans-31" transform="translate(77.001953 0)"/>
     <use xlink:href="#DejaVuSans-31" transform="translate(140.625 0)"/>
    </g>
   </g>
   <g id="text_45">
    <!-- D10 P0.27 -->
    <g transform="translate(379.98 521.692344) scale(0.11 -0.11)">
     <defs>
      <path id="DejaVuSans-37" d="M 525 4666 
L 3525 4666 
L 3525 4397 
L 1831 0 
L 1172 0 
L 2766 4134 
L 525 4134 
L 525 4666 
z
" transform="scale(0.015625)"/>
     </defs>
     <use xlink:href="#DejaVuSans-44"/>
     <use xlink:href="#DejaVuSans-31" transform="translate(77.001953 0)"/>
     <use xlink:href="#DejaVuSans-30" transform="translate(140.625 0)"/>
     <use xlink:href="#DejaVuSans-20" transform="translate(204.248047 0)"/>
     <use xlink:href="#DejaVuSans-50" transform="translate(236.035156 0)"/>
     <use xlink:href="#DejaVuSans-30" transform="translate(296.337891 0)"/>
     <use xlink:href="#DejaVuSans-2e" transform="translate(359.960938 0)"/>
     <use xlink:href="#DejaVuSans-32" transform="translate(391.748047 0)"/>
     <use xlink:href="#DejaVuSans-37" transform="translate(455.371094 0)"/>
    </g>
   </g>
   <g id="text_46">
    <!-- D10 -->
    <g transform="translate(343.285 530.543125) scale(0.14 -0.14)">
     <use xlink:href="#DejaVuSans-44"/>
     <use xlink:href="#DejaVuSans-31" transform="translate(77.001953 0)"/>
     <use xlink:href="#DejaVuSans-30" transform="translate(140.625 0)"/>
    </g>
   </g>
   <g id="text_47">
    <!-- D9 P0.26 -->
    <g transform="translate(379.98 449.692344) scale(0.11 -0.11)">
     <use xlink:href="#DejaVuSans-44"/>
     <use xlink:href="#DejaVuSans-39" transform="translate(77.001953 0)"/>
     <use xlink:href="#DejaVuSans-20" transform="translate(140.625 0)"/>
     <use xlink:href="#DejaVuSans-50" transform="translate(172.412109 0)"/>
     <use xlink:href="#DejaVuSans-30" transform="translate(232.714844 0)"/>
     <use xlink:href="#DejaVuSans-2e" transform="translate(296.337891 0)"/>
     <use xlink:href="#DejaVuSans-32" transform="translate(328.125 0)"/>
     <use xlink:href="#DejaVuSans-36" transform="translate(391.748047 0)"/>
    </g>
   </g>
   <g id="text_48">
    <!-- D9 -->
    <g transform="translate(352.1925 458.543125) scale(0.14 -0.14)">
     <use xlink:href="#DejaVuSans-44"/>
     <use xlink:href="#DejaVuSans-39" transform="translate(77.001953 0)"/>
    </g>
   </g>
   <g id="text_49">
    <!-- D6 P0.07 -->
    <g transform="translate(379.98 377.692344) scale(0.11 -0.11)">
     <use xlink:href="#DejaVuSans-44"/>
     <use xlink:href="#DejaVuSans-36" transform="translate(77.001953 0)"/>
     <use xlink:href="#DejaVuSans-20" transform="translate(140.625 0)"/>
     <use xlink:href="#DejaVuSans-50" transform="translate(172.412109 0)"/>
     <use xlink:href="#DejaVuSans-30" transform="translate(232.714844 0)"/>
     <use xlink:href="#DejaVuSans-2e" transform="translate(296.337891 0)"/>
     <use xlink:href="#DejaVuSans-30" transform="translate(328.125 0)"/>
     <use xlink:href="#DejaVuSans-37" transform="translate(391.748047 0)"/>
    </g>
   </g>
   <g id="text_50">
    <!-- D6 -->
    <g transform="translate(352.1925 386.543125) scale(0.14 -0.14)">
     <use xlink:href="#DejaVuSans-44"/>
     <use xlink:href="#DejaVuSans-36" transform="translate(77.001953 0)"/>
    </g>
   </g>
   <g id="text_51">
    <!-- D5 P1.08 -->
    <g transform="translate(379.98 305.692344) scale(0.11 -0.11)">
     <use xlink:href="#DejaVuSans-44"/>
     <use xlink:href="#DejaVuSans-35" transform="translate(77.001953 0)"/>
     <use xlink:href="#DejaVuSans-20" transform="translate(140.625 0)"/>
     <use xlink:href="#DejaVuSans-50" transform="translate(172.412109 0)"/>
     <use xlink:href="#DejaVuSans-31" transform="translate(232.714844 0)"/>
     <use xlink:href="#DejaVuSans-2e" transform="translate(296.337891 0)"/>
     <use xlink:href="#DejaVuSans-30" transform="translate(328.125 0)"/>
     <use xlink:href="#DejaVuSans-38" transform="translate(391.748047 0)"/>
    </g>
   </g>
   <g id="text_52">
    <!-- D5 -->
    <g transform="translate(352.1925 314.543125) scale(0.14 -0.14)">
     <use xlink:href="#DejaVuSans-44"/>
     <use xlink:href="#DejaVuSans-35" transform="translate(77.001953 0)"/>
    </g>
   </g>
   <g id="text_53">
    <!-- SCL P0.11 -->
    <g transform="translate(379.98 233.692344) scale(0.11 -0.11)">
     <use xlink:href="#DejaVuSans-53"/>
     <use xlink:href="#DejaVuSans-43" transform="translate(63.476562 0)"/>
     <use xlink:href="#DejaVuSans-4c" transform="translate(133.300781 0)"/>
     <use xlink:href="#DejaVuSans-20" transform="translate(189.013672 0)"/>
     <use xlink:href="#DejaVuSans-50" transform="translate(220.800781 0)"/>
     <use xlink:href="#DejaVuSans-30" transform="translate(281.103516 0)"/>
     <use xlink:href="#DejaVuSans-2e" transform="translate(344.726562 0)"/>
     <use xlink:href="#DejaVuSans-31" transform="translate(376.513672 0)"/>
     <use xlink:href="#DejaVuSans-31" transform="translate(440.136719 0)"/>
    </g>
   </g>
   <g id="text_54">
    <!-- SCL -->
    <g transform="translate(345.415625 242.543125) scale(0.14 -0.14)">
     <use xlink:href="#DejaVuSans-53"/>
     <use xlink:href="#DejaVuSans-43" transform="translate(63.476562 0)"/>
     <use xlink:href="#DejaVuSans-4c" transform="translate(133.300781 0)"/>
    </g>
   </g>
   <g id="text_55">
    <!-- SDA P0.12 -->
    <g transform="translate(379.98 161.692344) scale(0.11 -0.11)">
     <use xlink:href="#DejaVuSans-53"/>
     <use xlink:href="#DejaVuSans-44" transform="translate(63.476562 0)"/>
     <use xlink:href="#DejaVuSans-41" transform="translate(138.728516 0)"/>
     <use xlink:href="#DejaVuSans-20" transform="translate(207.136719 0)"/>
     <use xlink:href="#DejaVuSans-50" transform="translate(238.923828 0)"/>
     <use xlink:href="#DejaVuSans-30" transform="translate(299.226562 0)"/>
     <use xlink:href="#DejaVuSans-2e" transform="translate(362.849609 0)"/>
     <use xlink:href="#DejaVuSans-31" transform="translate(394.636719 0)"/>
     <use xlink:href="#DejaVuSans-32" transform="translate(458.259766 0)"/>
    </g>
   </g>
   <g id="text_56">
    <!-- SDA -->
    <g transform="translate(342.880313 170.543125) scale(0.14 -0.14)">
     <use xlink:href="#DejaVuSans-53"/>
     <use xlink:href="#DejaVuSans-44" transform="translate(63.476562 0)"/>
     <use xlink:href="#DejaVuSans-41" transform="translate(138.728516 0)"/>
    </g>
   </g>
   <g id="text_57">
    <!-- nRF52840 Feather -->
    <g transform="translate(249.465234 561.563437) scale(0.09 -0.09)">
     <defs>
      <path id="DejaVuSans-6e" d="M 3513 2113 
L 3513 0 
L 2938 0 
L 2938 2094 
Q 2938 2591 2744 2837 
Q 2550 3084 2163 3084 
Q 1697 3084 1428 2787 
Q 1159 2491 1159 1978 
L 1159 0 
L 581 0 
L 581 3500 
L 1159 3500 
L 1159 2956 
Q 1366 3272 1645 3428 
Q 1925 3584 2291 3584 
Q 2894 3584 3203 3211 
Q 3513 2838 3513 2113 
z
" transform="scale(0.015625)"/>
      <path id="DejaVuSans-65" d="M 3597 1894 
L 3597 1613 
L 953 1613 
Q 991 1019 1311 708 
Q 1631 397 2203 397 
Q 2534 397 2845 478 
Q 3156 559 3463 722 
L 3463 178 
Q 3153 47 2828 -22 
Q 2503 -91 2169 -91 
Q 1331 -91 842 396 
Q 353 884 353 1716 
Q 353 2575 817 3079 
Q 1281 3584 2069 3584 
Q 2775 3584 3186 3129 
Q 3597 2675 3597 1894 
z
M 3022 2063 
Q 3016 2534 2758 2815 
Q 2500 3097 2075 3097 
Q 1594 3097 1305 2825 
Q 1016 2553 972 2059 
L 3022 2063 
z
" transform="scale(0.015625)"/>
      <path id="DejaVuSans-61" d="M 2194 1759 
Q 1497 1759 1228 1600 
Q 959 1441 959 1056 
Q 959 750 1161 570 
Q 1363 391 1709 391 
Q 2188 391 2477 730 
Q 2766 1069 2766 1631 
L 2766 1759 
L 2194 1759 
z
M 3341 1997 
L 3341 0 
L 2766 0 
L 2766 531 
Q 2569 213 2275 61 
Q 1981 -91 1556 -91 
Q 1019 -91 701 211 
Q 384 513 384 1019 
Q 384 1609 779 1909 
Q 1175 2209 1959 2209 
L 2766 2209 
L 2766 2266 
Q 2766 2663 2505 2880 
Q 2244 3097 1772 3097 
Q 1472 3097 1187 3025 
Q 903 2953 641 2809 
L 641 3341 
Q 956 3463 1253 3523 
Q 1550 3584 1831 3584 
Q 2591 3584 2966 3190 
Q 3341 2797 3341 1997 
z
" transform="scale(0.015625)"/>
      <path id="DejaVuSans-74" d="M 1172 4494 
L 1172 3500 
L 2356 3500 
L 2356 3053 
L 1172 3053 
L 1172 1153 
Q 1172 725 1289 603 
Q 1406 481 1766 481 
L 2356 481 
L 2356 0 
L 1766 0 
Q 1100 0 847 248 
Q 594 497 594 1153 
L 594 3053 
L 172 3053 
L 172 3500 
L 594 3500 
L 594 4494 
L 1172 4494 
z
" transform="scale(0.015625)"/>
      <path id="DejaVuSans-68" d="M 3513 2113 
L 3513 0 
L 2938 0 
L 2938 2094 
Q 2938 2591 2744 2837 
Q 2550 3084 2163 3084 
Q 1697 3084 1428 2787 
Q 1159 2491 1159 1978 
L 1159 0 
L 581 0 
L 581 4863 
L 1159 4863 
L 1159 2956 
Q 1366 3272 1645 3428 
Q 1925 3584 2291 3584 
Q 2894 3584 3203 3211 
Q 3513 2838 3513 2113 
z
" transform="scale(0.015625)"/>
      <path id="DejaVuSans-72" d="M 2631 2963 
Q 2534 3019 2420 3045 
Q 2306 3072 2169 3072 
Q 1681 3072 1420 2755 
Q 1159 2438 1159 1844 
L 1159 0 
L 581 0 
L 581 3500 
L 1159 3500 
L 1159 2956 
Q 1341 3275 1631 3429 
Q 1922 3584 2338 3584 
Q 2397 3584 2469 3576 
Q 2541 3569 2628 3553 
L 2631 2963 
z
" transform="scale(0.015625)"/>
     </defs>
     <use xlink:href="#DejaVuSans-6e"/>
     <use xlink:href="#DejaVuSans-52" transform="translate(63.378906 0)"/>
     <use xlink:href="#DejaVuSans-46" transform="translate(132.861328 0)"/>
     <use xlink:href="#DejaVuSans-35" transform="translate(190.380859 0)"/>
     <use xlink:href="#DejaVuSans-32" transform="translate(254.003906 0)"/>
     <use xlink:href="#DejaVuSans-38" transform="translate(317.626953 0)"/>
     <use xlink:href="#DejaVuSans-34" transform="translate(381.25 0)"/>
     <use xlink:href="#DejaVuSans-30" transform="translate(444.873047 0)"/>
     <use xlink:href="#DejaVuSans-20" transform="translate(508.496094 0)"/>
     <use xlink:href="#DejaVuSans-46" transform="translate(540.283203 0)"/>
     <use xlink:href="#DejaVuSans-65" transform="translate(592.302734 0)"/>
     <use xlink:href="#DejaVuSans-61" transform="translate(653.826172 0)"/>
     <use xlink:href="#DejaVuSans-74" transform="translate(715.105469 0)"/>
     <use xlink:href="#DejaVuSans-68" transform="translate(754.314453 0)"/>
     <use xlink:href="#DejaVuSans-65" transform="translate(817.693359 0)"/>
     <use xlink:href="#DejaVuSans-72" transform="translate(879.216797 0)"/>
    </g>
   </g>
   <g id="text_58">
    <!-- VBAT -->
    <g transform="translate(434.88 957.563437) scale(0.09 -0.09)">
     <use xlink:href="#DejaVuSans-56"/>
     <use xlink:href="#DejaVuSans-42" transform="translate(68.408203 0)"/>
     <use xlink:href="#DejaVuSans-41" transform="translate(137.011719 0)"/>
     <use xlink:href="#DejaVuSans-54" transform="translate(197.669922 0)"/>
    </g>
   </g>
   <g id="text_59">
    <!-- VBUS -->
    <g transform="translate(434.88 813.563437) scale(0.09 -0.09)">
     <use xlink:href="#DejaVuSans-56"/>
     <use xlink:href="#DejaVuSans-42" transform="translate(68.408203 0)"/>
     <use xlink:href="#DejaVuSans-55" transform="translate(137.011719 0)"/>
     <use xlink:href="#DejaVuSans-53" transform="translate(210.205078 0)"/>
    </g>
   </g>
   <g id="text_60">
    <!-- 10 kΩ -->
    <g transform="translate(439.678828 629.208281) scale(0.09 -0.09)">
     <defs>
      <path id="DejaVuSans-6b" d="M 581 4863 
L 1159 4863 
L 1159 1991 
L 2875 3500 
L 3609 3500 
L 1753 1863 
L 3688 0 
L 2938 0 
L 1159 1709 
L 1159 0 
L 581 0 
L 581 4863 
z
" transform="scale(0.015625)"/>
      <path id="DejaVuSans-3a9" d="M 4647 556 
L 4647 0 
L 2772 0 
L 2772 556 
Q 3325 859 3634 1378 
Q 3944 1897 3944 2528 
Q 3944 3278 3531 3731 
Q 3119 4184 2444 4184 
Q 1769 4184 1355 3729 
Q 941 3275 941 2528 
Q 941 1897 1250 1378 
Q 1563 859 2119 556 
L 2119 0 
L 244 0 
L 244 556 
L 1241 556 
Q 747 991 519 1456 
Q 294 1922 294 2497 
Q 294 3491 894 4106 
Q 1491 4722 2444 4722 
Q 3391 4722 3994 4106 
Q 4594 3494 4594 2528 
Q 4594 1922 4372 1459 
Q 4150 997 3647 556 
L 4647 556 
z
" transform="scale(0.015625)"/>
     </defs>
     <use xlink:href="#DejaVuSans-31"/>
     <use xlink:href="#DejaVuSans-30" transform="translate(63.623047 0)"/>
     <use xlink:href="#DejaVuSans-20" transform="translate(127.246094 0)"/>
     <use xlink:href="#DejaVuSans-6b" transform="translate(159.033203 0)"/>
     <use xlink:href="#DejaVuSans-3a9" transform="translate(216.943359 0)"/>
    </g>
   </g>
   <g id="text_61">
    <!-- 3V3 -->
    <g transform="translate(431.670938 633.563437) scale(0.09 -0.09)">
     <use xlink:href="#DejaVuSans-33"/>
     <use xlink:href="#DejaVuSans-56" transform="translate(63.623047 0)"/>
     <use xlink:href="#DejaVuSans-33" transform="translate(132.03125 0)"/>
    </g>
   </g>
   <g id="text_62">
    <!-- SELECT -->
    <g transform="translate(489.938203 685.438594) scale(0.09 -0.09)">
     <use xlink:href="#DejaVuSans-53"/>
     <use xlink:href="#DejaVuSans-45" transform="translate(63.476562 0)"/>
     <use xlink:href="#DejaVuSans-4c" transform="translate(126.660156 0)"/>
     <use xlink:href="#DejaVuSans-45" transform="translate(182.373047 0)"/>
     <use xlink:href="#DejaVuSans-43" transform="translate(245.556641 0)"/>
     <use xlink:href="#DejaVuSans-54" transform="translate(315.380859 0)"/>
    </g>
   </g>
   <g id="text_63">
    <!-- 220 Ω -->
    <g transform="translate(471.821484 584.208281) scale(0.09 -0.09)">
     <use xlink:href="#DejaVuSans-32"/>
     <use xlink:href="#DejaVuSans-32" transform="translate(63.623047 0)"/>
     <use xlink:href="#DejaVuSans-30" transform="translate(127.246094 0)"/>
     <use xlink:href="#DejaVuSans-20" transform="translate(190.869141 0)"/>
     <use xlink:href="#DejaVuSans-3a9" transform="translate(222.65625 0)"/>
    </g>
   </g>
   <g id="text_64">
    <!-- SEL_3 -->
    <g transform="translate(579.959297 557.947969) scale(0.09 -0.09)">
     <defs>
      <path id="DejaVuSans-5f" d="M 3263 -1063 
L 3263 -1509 
L -63 -1509 
L -63 -1063 
L 3263 -1063 
z
" transform="scale(0.015625)"/>
     </defs>
     <use xlink:href="#DejaVuSans-53"/>
     <use xlink:href="#DejaVuSans-45" transform="translate(63.476562 0)"/>
     <use xlink:href="#DejaVuSans-4c" transform="translate(126.660156 0)"/>
     <use xlink:href="#DejaVuSans-5f" transform="translate(182.373047 0)"/>
     <use xlink:href="#DejaVuSans-33" transform="translate(232.373047 0)"/>
    </g>
   </g>
   <g id="text_65">
    <!-- 220 Ω -->
    <g transform="translate(471.821484 512.208281) scale(0.09 -0.09)">
     <use xlink:href="#DejaVuSans-32"/>
     <use xlink:href="#DejaVuSans-32" transform="translate(63.623047 0)"/>
     <use xlink:href="#DejaVuSans-30" transform="translate(127.246094 0)"/>
     <use xlink:href="#DejaVuSans-20" transform="translate(190.869141 0)"/>
     <use xlink:href="#DejaVuSans-3a9" transform="translate(222.65625 0)"/>
    </g>
   </g>
   <g id="text_66">
    <!-- SEL_2 -->
    <g transform="translate(579.959297 485.947969) scale(0.09 -0.09)">
     <use xlink:href="#DejaVuSans-53"/>
     <use xlink:href="#DejaVuSans-45" transform="translate(63.476562 0)"/>
     <use xlink:href="#DejaVuSans-4c" transform="translate(126.660156 0)"/>
     <use xlink:href="#DejaVuSans-5f" transform="translate(182.373047 0)"/>
     <use xlink:href="#DejaVuSans-32" transform="translate(232.373047 0)"/>
    </g>
   </g>
   <g id="text_67">
    <!-- 220 Ω -->
    <g transform="translate(471.821484 440.208281) scale(0.09 -0.09)">
     <use xlink:href="#DejaVuSans-32"/>
     <use xlink:href="#DejaVuSans-32" transform="translate(63.623047 0)"/>
     <use xlink:href="#DejaVuSans-30" transform="translate(127.246094 0)"/>
     <use xlink:href="#DejaVuSans-20" transform="translate(190.869141 0)"/>
     <use xlink:href="#DejaVuSans-3a9" transform="translate(222.65625 0)"/>
    </g>
   </g>
   <g id="text_68">
    <!-- SEL_1 -->
    <g transform="translate(579.959297 413.947969) scale(0.09 -0.09)">
     <use xlink:href="#DejaVuSans-53"/>
     <use xlink:href="#DejaVuSans-45" transform="translate(63.476562 0)"/>
     <use xlink:href="#DejaVuSans-4c" transform="translate(126.660156 0)"/>
     <use xlink:href="#DejaVuSans-5f" transform="translate(182.373047 0)"/>
     <use xlink:href="#DejaVuSans-31" transform="translate(232.373047 0)"/>
    </g>
   </g>
   <g id="text_69">
    <!-- 220 Ω -->
    <g transform="translate(471.821484 368.208281) scale(0.09 -0.09)">
     <use xlink:href="#DejaVuSans-32"/>
     <use xlink:href="#DejaVuSans-32" transform="translate(63.623047 0)"/>
     <use xlink:href="#DejaVuSans-30" transform="translate(127.246094 0)"/>
     <use xlink:href="#DejaVuSans-20" transform="translate(190.869141 0)"/>
     <use xlink:href="#DejaVuSans-3a9" transform="translate(222.65625 0)"/>
    </g>
   </g>
   <g id="text_70">
    <!-- PWR_LED -->
    <g transform="translate(571.924688 341.947969) scale(0.09 -0.09)">
     <defs>
      <path id="DejaVuSans-57" d="M 213 4666 
L 850 4666 
L 1831 722 
L 2809 4666 
L 3519 4666 
L 4500 722 
L 5478 4666 
L 6119 4666 
L 4947 0 
L 4153 0 
L 3169 4050 
L 2175 0 
L 1381 0 
L 213 4666 
z
" transform="scale(0.015625)"/>
     </defs>
     <use xlink:href="#DejaVuSans-50"/>
     <use xlink:href="#DejaVuSans-57" transform="translate(60.302734 0)"/>
     <use xlink:href="#DejaVuSans-52" transform="translate(159.179688 0)"/>
     <use xlink:href="#DejaVuSans-5f" transform="translate(228.662109 0)"/>
     <use xlink:href="#DejaVuSans-4c" transform="translate(278.662109 0)"/>
     <use xlink:href="#DejaVuSans-45" transform="translate(334.375 0)"/>
     <use xlink:href="#DejaVuSans-44" transform="translate(397.558594 0)"/>
    </g>
   </g>
   <g id="text_71">
    <!-- 220 Ω -->
    <g transform="translate(471.821484 296.208281) scale(0.09 -0.09)">
     <use xlink:href="#DejaVuSans-32"/>
     <use xlink:href="#DejaVuSans-32" transform="translate(63.623047 0)"/>
     <use xlink:href="#DejaVuSans-30" transform="translate(127.246094 0)"/>
     <use xlink:href="#DejaVuSans-20" transform="translate(190.869141 0)"/>
     <use xlink:href="#DejaVuSans-3a9" transform="translate(222.65625 0)"/>
    </g>
   </g>
   <g id="text_72">
    <!-- BT_LED -->
    <g transform="translate(576.378281 269.947969) scale(0.09 -0.09)">
     <use xlink:href="#DejaVuSans-42"/>
     <use xlink:href="#DejaVuSans-54" transform="translate(68.603516 0)"/>
     <use xlink:href="#DejaVuSans-5f" transform="translate(129.6875 0)"/>
     <use xlink:href="#DejaVuSans-4c" transform="translate(179.6875 0)"/>
     <use xlink:href="#DejaVuSans-45" transform="translate(235.400391 0)"/>
     <use xlink:href="#DejaVuSans-44" transform="translate(298.583984 0)"/>
    </g>
   </g>
   <g id="text_73">
    <!-- 3.3V -->
    <g transform="translate(126.410625 1029.563437) scale(0.09 -0.09)">
     <use xlink:href="#DejaVuSans-33"/>
     <use xlink:href="#DejaVuSans-2e" transform="translate(63.623047 0)"/>
     <use xlink:href="#DejaVuSans-33" transform="translate(95.410156 0)"/>
     <use xlink:href="#DejaVuSans-56" transform="translate(159.033203 0)"/>
    </g>
   </g>
   <g id="text_74">
    <!-- 10 kΩ -->
    <g transform="translate(108.478828 773.208281) scale(0.09 -0.09)">
     <use xlink:href="#DejaVuSans-31"/>
     <use xlink:href="#DejaVuSans-30" transform="translate(63.623047 0)"/>
     <use xlink:href="#DejaVuSans-20" transform="translate(127.246094 0)"/>
     <use xlink:href="#DejaVuSans-6b" transform="translate(159.033203 0)"/>
     <use xlink:href="#DejaVuSans-3a9" transform="translate(216.943359 0)"/>
    </g>
   </g>
   <g id="text_75">
    <!-- 3V3 -->
    <g transform="translate(100.470938 777.563437) scale(0.09 -0.09)">
     <use xlink:href="#DejaVuSans-33"/>
     <use xlink:href="#DejaVuSans-56" transform="translate(63.623047 0)"/>
     <use xlink:href="#DejaVuSans-33" transform="translate(132.03125 0)"/>
    </g>
   </g>
   <g id="text_76">
    <!-- BTN_A -->
    <g transform="translate(53.149219 842.868281) scale(0.09 -0.09)">
     <use xlink:href="#DejaVuSans-42"/>
     <use xlink:href="#DejaVuSans-54" transform="translate(68.603516 0)"/>
     <use xlink:href="#DejaVuSans-4e" transform="translate(129.6875 0)"/>
     <use xlink:href="#DejaVuSans-5f" transform="translate(204.492188 0)"/>
     <use xlink:href="#DejaVuSans-41" transform="translate(254.492188 0)"/>
    </g>
   </g>
   <g id="text_77">
    <!-- 10 kΩ -->
    <g transform="translate(108.478828 701.208281) scale(0.09 -0.09)">
     <use xlink:href="#DejaVuSans-31"/>
     <use xlink:href="#DejaVuSans-30" transform="translate(63.623047 0)"/>
     <use xlink:href="#DejaVuSans-20" transform="translate(127.246094 0)"/>
     <use xlink:href="#DejaVuSans-6b" transform="translate(159.033203 0)"/>
     <use xlink:href="#DejaVuSans-3a9" transform="translate(216.943359 0)"/>
    </g>
   </g>
   <g id="text_78">
    <!-- 3V3 -->
    <g transform="translate(100.470938 705.563437) scale(0.09 -0.09)">
     <use xlink:href="#DejaVuSans-33"/>
     <use xlink:href="#DejaVuSans-56" transform="translate(63.623047 0)"/>
     <use xlink:href="#DejaVuSans-33" transform="translate(132.03125 0)"/>
    </g>
   </g>
   <g id="text_79">
    <!-- BTN_B -->
    <g transform="translate(53.140078 770.868281) scale(0.09 -0.09)">
     <use xlink:href="#DejaVuSans-42"/>
     <use xlink:href="#DejaVuSans-54" transform="translate(68.603516 0)"/>
     <use xlink:href="#DejaVuSans-4e" transform="translate(129.6875 0)"/>
     <use xlink:href="#DejaVuSans-5f" transform="translate(204.492188 0)"/>
     <use xlink:href="#DejaVuSans-42" transform="translate(254.492188 0)"/>
    </g>
   </g>
   <g id="text_80">
    <!-- 10 kΩ -->
    <g transform="translate(108.478828 629.208281) scale(0.09 -0.09)">
     <use xlink:href="#DejaVuSans-31"/>
     <use xlink:href="#DejaVuSans-30" transform="translate(63.623047 0)"/>
     <use xlink:href="#DejaVuSans-20" transform="translate(127.246094 0)"/>
     <use xlink:href="#DejaVuSans-6b" transform="translate(159.033203 0)"/>
     <use xlink:href="#DejaVuSans-3a9" transform="translate(216.943359 0)"/>
    </g>
   </g>
   <g id="text_81">
    <!-- 3V3 -->
    <g transform="translate(100.470938 633.563437) scale(0.09 -0.09)">
     <use xlink:href="#DejaVuSans-33"/>
     <use xlink:href="#DejaVuSans-56" transform="translate(63.623047 0)"/>
     <use xlink:href="#DejaVuSans-33" transform="translate(132.03125 0)"/>
    </g>
   </g>
   <g id="text_82">
    <!-- BTN_C -->
    <g transform="translate(53.085234 698.959687) scale(0.09 -0.09)">
     <use xlink:href="#DejaVuSans-42"/>
     <use xlink:href="#DejaVuSans-54" transform="translate(68.603516 0)"/>
     <use xlink:href="#DejaVuSans-4e" transform="translate(129.6875 0)"/>
     <use xlink:href="#DejaVuSans-5f" transform="translate(204.492188 0)"/>
     <use xlink:href="#DejaVuSans-43" transform="translate(254.492188 0)"/>
    </g>
   </g>
   <g id="text_83">
    <!-- 10 kΩ -->
    <g transform="translate(108.478828 557.208281) scale(0.09 -0.09)">
     <use xlink:href="#DejaVuSans-31"/>
     <use xlink:href="#DejaVuSans-30" transform="translate(63.623047 0)"/>
     <use xlink:href="#DejaVuSans-20" transform="translate(127.246094 0)"/>
     <use xlink:href="#DejaVuSans-6b" transform="translate(159.033203 0)"/>
     <use xlink:href="#DejaVuSans-3a9" transform="translate(216.943359 0)"/>
    </g>
   </g>
   <g id="text_84">
    <!-- 3V3 -->
    <g transform="translate(100.470938 561.563437) scale(0.09 -0.09)">
     <use xlink:href="#DejaVuSans-33"/>
     <use xlink:href="#DejaVuSans-56" transform="translate(63.623047 0)"/>
     <use xlink:href="#DejaVuSans-33" transform="translate(132.03125 0)"/>
    </g>
   </g>
   <g id="text_85">
    <!-- BTN_D -->
    <g transform="translate(52.7625 626.868281) scale(0.09 -0.09)">
     <use xlink:href="#DejaVuSans-42"/>
     <use xlink:href="#DejaVuSans-54" transform="translate(68.603516 0)"/>
     <use xlink:href="#DejaVuSans-4e" transform="translate(129.6875 0)"/>
     <use xlink:href="#DejaVuSans-5f" transform="translate(204.492188 0)"/>
     <use xlink:href="#DejaVuSans-44" transform="translate(254.492188 0)"/>
    </g>
   </g>
   <g id="patch_27">
    <path d="M 431.28 961.38 
C 431.996048 961.38 432.682866 961.095511 433.189188 960.589188 
C 433.695511 960.082866 433.98 959.396048 433.98 958.68 
C 433.98 957.963952 433.695511 957.277134 433.189188 956.770812 
C 432.682866 956.264489 431.996048 955.98 431.28 955.98 
C 430.563952 955.98 429.877134 956.264489 429.370812 956.770812 
C 428.864489 957.277134 428.58 957.963952 428.58 958.68 
C 428.58 959.396048 428.864489 960.082866 429.370812 960.589188 
C 429.877134 961.095511 430.563952 961.38 431.28 961.38 
z
" clip-path="url(#pc770874978)" style="stroke: #000000; stroke-width: 2; stroke-linejoin: miter"/>
   </g>
   <g id="patch_28">
    <path d="M 431.28 817.38 
C 431.996048 817.38 432.682866 817.095511 433.189188 816.589188 
C 433.695511 816.082866 433.98 815.396048 433.98 814.68 
C 433.98 813.963952 433.695511 813.277134 433.189188 812.770812 
C 432.682866 812.264489 431.996048 811.98 431.28 811.98 
C 430.563952 811.98 429.877134 812.264489 429.370812 812.770812 
C 428.864489 813.277134 428.58 813.963952 428.58 814.68 
C 428.58 815.396048 428.864489 816.082866 429.370812 816.589188 
C 429.877134 817.095511 430.563952 817.38 431.28 817.38 
z
" clip-path="url(#pc770874978)" style="stroke: #000000; stroke-width: 2; stroke-linejoin: miter"/>
   </g>
   <g id="patch_29">
    <path d="M 452.88 673.38 
C 453.596048 673.38 454.282866 673.095511 454.789188 672.589188 
C 455.295511 672.082866 455.58 671.396048 455.58 670.68 
C 455.58 669.963952 455.295511 669.277134 454.789188 668.770812 
C 454.282866 668.264489 453.596048 667.98 452.88 667.98 
C 452.163952 667.98 451.477134 668.264489 450.970812 668.770812 
C 450.464489 669.277134 450.18 669.963952 450.18 670.68 
C 450.18 671.396048 450.464489 672.082866 450.970812 672.589188 
C 451.477134 673.095511 452.163952 673.38 452.88 673.38 
z
" clip-path="url(#pc770874978)" style="stroke: #000000; stroke-width: 2; stroke-linejoin: miter"/>
   </g>
   <g id="patch_30">
    <path d="M 143.28 1033.38 
C 143.996048 1033.38 144.682866 1033.095511 145.189188 1032.589188 
C 145.695511 1032.082866 145.98 1031.396048 145.98 1030.68 
C 145.98 1029.963952 145.695511 1029.277134 145.189188 1028.770812 
C 144.682866 1028.264489 143.996048 1027.98 143.28 1027.98 
C 142.563952 1027.98 141.877134 1028.264489 141.370812 1028.770812 
C 140.864489 1029.277134 140.58 1029.963952 140.58 1030.68 
C 140.58 1031.396048 140.864489 1032.082866 141.370812 1032.589188 
C 141.877134 1033.095511 142.563952 1033.38 143.28 1033.38 
z
" clip-path="url(#pc770874978)" style="stroke: #000000; stroke-width: 2; stroke-linejoin: miter"/>
   </g>
   <g id="patch_31">
    <path d="M 121.68 817.38 
C 122.396048 817.38 123.082866 817.095511 123.589188 816.589188 
C 124.095511 816.082866 124.38 815.396048 124.38 814.68 
C 124.38 813.963952 124.095511 813.277134 123.589188 812.770812 
C 123.082866 812.264489 122.396048 811.98 121.68 811.98 
C 120.963952 811.98 120.277134 812.264489 119.770812 812.770812 
C 119.264489 813.277134 118.98 813.963952 118.98 814.68 
C 118.98 815.396048 119.264489 816.082866 119.770812 816.589188 
C 120.277134 817.095511 120.963952 817.38 121.68 817.38 
z
" clip-path="url(#pc770874978)" style="stroke: #000000; stroke-width: 2; stroke-linejoin: miter"/>
   </g>
   <g id="patch_32">
    <path d="M 121.68 745.38 
C 122.396048 745.38 123.082866 745.095511 123.589188 744.589188 
C 124.095511 744.082866 124.38 743.396048 124.38 742.68 
C 124.38 741.963952 124.095511 741.277134 123.589188 740.770812 
C 123.082866 740.264489 122.396048 739.98 121.68 739.98 
C 120.963952 739.98 120.277134 740.264489 119.770812 740.770812 
C 119.264489 741.277134 118.98 741.963952 118.98 742.68 
C 118.98 743.396048 119.264489 744.082866 119.770812 744.589188 
C 120.277134 745.095511 120.963952 745.38 121.68 745.38 
z
" clip-path="url(#pc770874978)" style="stroke: #000000; stroke-width: 2; stroke-linejoin: miter"/>
   </g>
   <g id="patch_33">
    <path d="M 121.68 673.38 
C 122.396048 673.38 123.082866 673.095511 123.589188 672.589188 
C 124.095511 672.082866 124.38 671.396048 124.38 670.68 
C 124.38 669.963952 124.095511 669.277134 123.589188 668.770812 
C 123.082866 668.264489 122.396048 667.98 121.68 667.98 
C 120.963952 667.98 120.277134 668.264489 119.770812 668.770812 
C 119.264489 669.277134 118.98 669.963952 118.98 670.68 
C 118.98 671.396048 119.264489 672.082866 119.770812 672.589188 
C 120.277134 673.095511 120.963952 673.38 121.68 673.38 
z
" clip-path="url(#pc770874978)" style="stroke: #000000; stroke-width: 2; stroke-linejoin: miter"/>
   </g>
   <g id="patch_34">
    <path d="M 121.68 601.38 
C 122.396048 601.38 123.082866 601.095511 123.589188 600.589188 
C 124.095511 600.082866 124.38 599.396048 124.38 598.68 
C 124.38 597.963952 124.095511 597.277134 123.589188 596.770812 
C 123.082866 596.264489 122.396048 595.98 121.68 595.98 
C 120.963952 595.98 120.277134 596.264489 119.770812 596.770812 
C 119.264489 597.277134 118.98 597.963952 118.98 598.68 
C 118.98 599.396048 119.264489 600.082866 119.770812 600.589188 
C 120.277134 601.095511 120.963952 601.38 121.68 601.38 
z
" clip-path="url(#pc770874978)" style="stroke: #000000; stroke-width: 2; stroke-linejoin: miter"/>
   </g>
  </g>
 </g>
 <defs>
  <clipPath id="pc770874978">
   <rect x="0" y="0" width="660.96" height="1125.36"/>
  </clipPath>
 </defs>
</svg>
