<svg xmlns="http://www.w3.org/2000/svg" viewBox="-64 -64 320 256" width="320" height="256" data-skill="circuit-skill@0.4.0">
<title>Tutorial step 3 — sub-block instances</title>
<g class="wires" stroke="black" stroke-width="2" fill="none">
<path d="M 160,0 L 192,0 L 192,0" data-net="BT__anode" data-from="R_BT.2" data-to="D_BT.A" />
<path d="M 160,64 L 192,64 L 192,64" data-net="ERR__anode" data-from="R_ERR.2" data-to="D_ERR.A" />
<path d="M 0,128 L 0,128 L 0,0" data-net="GND" data-from="J1.GND" data-to="U1.GNDL" />
<path d="M 0,0 L 0,0" data-net="GND" data-from="U1.GNDL" data-to="U1.GNDR" />
<path d="M 0,0 L 192,0 L 192,128" data-net="GND" data-from="U1.GNDR" data-to="D_PWR.K" />
<path d="M 192,128 L 192,128 L 192,0" data-net="GND" data-from="D_PWR.K" data-to="D_BT.K" />
<path d="M 192,0 L 192,0 L 192,64" data-net="GND" data-from="D_BT.K" data-to="D_ERR.K" />
<path d="M 0,0 L 160,0 L 160,0" data-net="LED_BT" data-from="U1.D4" data-to="R_BT.1" />
<path d="M 0,0 L 160,0 L 160,64" data-net="LED_ERR" data-from="U1.D5" data-to="R_ERR.1" />
<path d="M 0,0 L 160,0 L 160,128" data-net="LED_PWR" data-from="U1.D2" data-to="R_PWR.1" />
<path d="M 160,128 L 192,128 L 192,128" data-net="PWR__anode" data-from="R_PWR.2" data-to="D_PWR.A" />
<path d="M 0,128 L 0,128 L 0,0" data-net="VCC" data-from="J1.VBUS" data-to="U1.VIN" />
</g>
<g class="components">
<g class="component" data-ref="D_BT" data-region="right-column"><rect x="176" y="-16" width="32" height="32" fill="white" stroke="black" stroke-width="2" /><text x="192" y="4" text-anchor="middle" font-family="DejaVu Sans" font-size="12">D_BT</text></g>
<g class="component" data-ref="D_ERR" data-region="right-column"><rect x="176" y="48" width="32" height="32" fill="white" stroke="black" stroke-width="2" /><text x="192" y="68" text-anchor="middle" font-family="DejaVu Sans" font-size="12">D_ERR</text></g>
<g class="component" data-ref="D_PWR" data-region="right-column"><rect x="176" y="112" width="32" height="32" fill="white" stroke="black" stroke-width="2" /><text x="192" y="132" text-anchor="middle" font-family="DejaVu Sans" font-size="12">D_PWR</text></g>
<g class="component" data-ref="J1" data-region="bottom-row"><rect x="-16" y="112" width="32" height="32" fill="white" stroke="black" stroke-width="2" /><text x="0" y="132" text-anchor="middle" font-family="DejaVu Sans" font-size="12">J1</text></g>
<g class="component" data-ref="R_BT" data-region="right-column"><rect x="144" y="-16" width="32" height="32" fill="white" stroke="black" stroke-width="2" /><text x="160" y="4" text-anchor="middle" font-family="DejaVu Sans" font-size="12">R_BT</text></g>
<g class="component" data-ref="R_ERR" data-region="right-column"><rect x="144" y="48" width="32" height="32" fill="white" stroke="black" stroke-width="2" /><text x="160" y="68" text-anchor="middle" font-family="DejaVu Sans" font-size="12">R_ERR</text></g>
<g class="component" data-ref="R_PWR" data-region="right-column"><rect x="144" y="112" width="32" height="32" fill="white" stroke="black" stroke-width="2" /><text x="160" y="132" text-anchor="middle" font-family="DejaVu Sans" font-size="12">R_PWR</text></g>
<g class="component" data-ref="U1" data-region="mcu-center"><rect x="-16" y="-16" width="32" height="32" fill="white" stroke="black" stroke-width="2" /><text x="0" y="4" text-anchor="middle" font-family="DejaVu Sans" font-size="12">U1</text></g>
</g>
</svg>
