<svg xmlns="http://www.w3.org/2000/svg" viewBox="-256 -64 512 256" width="512" height="256" data-skill="circuit-skill@0.4.0">
<title>Op-amp non-inverting buffer</title>
<g class="wires" stroke="black" stroke-width="2" fill="none">
<path d="M -192,0 L -192,0" data-net="BUF_OUT" data-from="A1.OUT" data-to="A1.IN-" />
<path d="M -192,0 L 192,0 L 192,128" data-net="BUF_OUT" data-from="A1.IN-" data-to="J_OUT.TIP" />
<path d="M 0,128 L 64,128 L 64,128" data-net="GND" data-from="J1.GND" data-to="J2.GND" />
<path d="M 64,128 L 0,128 L 0,0" data-net="GND" data-from="J2.GND" data-to="U1.GNDL" />
<path d="M 0,0 L 0,0" data-net="GND" data-from="U1.GNDL" data-to="U1.GNDR" />
<path d="M 128,128 L 192,128 L 192,128" data-net="GND" data-from="J_IN.SLEEVE" data-to="J_OUT.SLEEVE" />
<path d="M 128,128 L -192,128 L -192,0" data-net="SIG_IN" data-from="J_IN.TIP" data-to="A1.IN+" />
<path d="M 64,128 L -192,128 L -192,0" data-net="V_MINUS" data-from="J2.VBUS" data-to="A1.V-" />
<path d="M 0,128 L -192,128 L -192,0" data-net="V_PLUS" data-from="J1.VBUS" data-to="A1.V+" />
</g>
<g class="components">
<g class="component" data-ref="A1" data-region="left-column"><rect x="-208" y="-16" width="32" height="32" fill="white" stroke="black" stroke-width="2" /><text x="-192" y="4" text-anchor="middle" font-family="DejaVu Sans" font-size="12">A1</text></g>
<g class="component" data-ref="J1" data-region="bottom-row"><rect x="-16" y="112" width="32" height="32" fill="white" stroke="black" stroke-width="2" /><text x="0" y="132" text-anchor="middle" font-family="DejaVu Sans" font-size="12">J1</text></g>
<g class="component" data-ref="J2" data-region="bottom-row"><rect x="48" y="112" width="32" height="32" fill="white" stroke="black" stroke-width="2" /><text x="64" y="132" text-anchor="middle" font-family="DejaVu Sans" font-size="12">J2</text></g>
<g class="component" data-ref="J_IN" data-region="bottom-row"><rect x="112" y="112" width="32" height="32" fill="white" stroke="black" stroke-width="2" /><text x="128" y="132" text-anchor="middle" font-family="DejaVu Sans" font-size="12">J_IN</text></g>
<g class="component" data-ref="J_OUT" data-region="bottom-row"><rect x="176" y="112" width="32" height="32" fill="white" stroke="black" stroke-width="2" /><text x="192" y="132" text-anchor="middle" font-family="DejaVu Sans" font-size="12">J_OUT</text></g>
<g class="component" data-ref="U1" data-region="mcu-center"><rect x="-16" y="-16" width="32" height="32" fill="white" stroke="black" stroke-width="2" /><text x="0" y="4" text-anchor="middle" font-family="DejaVu Sans" font-size="12">U1</text></g>
</g>
</svg>
